<svg width="371" height="447" viewBox="0 0 371 447" fill="none" xmlns="http://www.w3.org/2000/svg">
<circle cx="2.5" cy="2.5" r="2.5" fill="#C4C4C4"/>
<circle cx="2.5" cy="230.5" r="2.5" fill="#C4C4C4"/>
<circle cx="2.5" cy="116.5" r="2.5" fill="#C4C4C4"/>
<circle cx="2.5" cy="344.5" r="2.5" fill="#C4C4C4"/>
<circle cx="2.5" cy="59.5" r="2.5" fill="#C4C4C4"/>
<circle cx="2.5" cy="287.5" r="2.5" fill="#C4C4C4"/>
<circle cx="2.5" cy="173.5" r="2.5" fill="#C4C4C4"/>
<circle cx="2.5" cy="401.5" r="2.5" fill="#C4C4C4"/>
<circle cx="2.5" cy="31.5" r="2.5" fill="#C4C4C4"/>
<circle cx="2.5" cy="259.5" r="2.5" fill="#C4C4C4"/>
<circle cx="2.5" cy="145.5" r="2.5" fill="#C4C4C4"/>
<circle cx="2.5" cy="373.5" r="2.5" fill="#C4C4C4"/>
<circle cx="2.5" cy="88.5" r="2.5" fill="#C4C4C4"/>
<circle cx="2.5" cy="316.5" r="2.5" fill="#C4C4C4"/>
<circle cx="2.5" cy="202.5" r="2.5" fill="#C4C4C4"/>
<circle cx="2.5" cy="430.5" r="2.5" fill="#C4C4C4"/>
<circle cx="2.5" cy="16.5" r="2.5" fill="#C4C4C4"/>
<circle cx="2.5" cy="244.5" r="2.5" fill="#C4C4C4"/>
<circle cx="2.5" cy="130.5" r="2.5" fill="#C4C4C4"/>
<circle cx="2.5" cy="358.5" r="2.5" fill="#C4C4C4"/>
<circle cx="2.5" cy="73.5" r="2.5" fill="#C4C4C4"/>
<circle cx="2.5" cy="301.5" r="2.5" fill="#C4C4C4"/>
<circle cx="2.5" cy="187.5" r="2.5" fill="#C4C4C4"/>
<circle cx="2.5" cy="415.5" r="2.5" fill="#C4C4C4"/>
<circle cx="2.5" cy="45.5" r="2.5" fill="#C4C4C4"/>
<circle cx="2.5" cy="273.5" r="2.5" fill="#C4C4C4"/>
<circle cx="2.5" cy="159.5" r="2.5" fill="#C4C4C4"/>
<circle cx="2.5" cy="387.5" r="2.5" fill="#C4C4C4"/>
<circle cx="2.5" cy="102.5" r="2.5" fill="#C4C4C4"/>
<circle cx="2.5" cy="330.5" r="2.5" fill="#C4C4C4"/>
<circle cx="2.5" cy="216.5" r="2.5" fill="#C4C4C4"/>
<circle cx="2.5" cy="444.5" r="2.5" fill="#C4C4C4"/>
<circle cx="130.5" cy="2.5" r="2.5" fill="#C4C4C4"/>
<circle cx="256.5" cy="2.5" r="2.5" fill="#C4C4C4"/>
<circle cx="130.5" cy="230.5" r="2.5" fill="#C4C4C4"/>
<circle cx="256.5" cy="230.5" r="2.5" fill="#C4C4C4"/>
<circle cx="130.5" cy="116.5" r="2.5" fill="#C4C4C4"/>
<circle cx="256.5" cy="116.5" r="2.5" fill="#C4C4C4"/>
<circle cx="130.5" cy="344.5" r="2.5" fill="#C4C4C4"/>
<circle cx="256.5" cy="344.5" r="2.5" fill="#C4C4C4"/>
<circle cx="130.5" cy="59.5" r="2.5" fill="#C4C4C4"/>
<circle cx="256.5" cy="59.5" r="2.5" fill="#C4C4C4"/>
<circle cx="130.5" cy="287.5" r="2.5" fill="#C4C4C4"/>
<circle cx="256.5" cy="287.5" r="2.5" fill="#C4C4C4"/>
<circle cx="130.5" cy="173.5" r="2.5" fill="#C4C4C4"/>
<circle cx="256.5" cy="173.5" r="2.5" fill="#C4C4C4"/>
<circle cx="130.5" cy="401.5" r="2.5" fill="#C4C4C4"/>
<circle cx="256.5" cy="401.5" r="2.5" fill="#C4C4C4"/>
<circle cx="130.5" cy="31.5" r="2.5" fill="#C4C4C4"/>
<circle cx="256.5" cy="31.5" r="2.5" fill="#C4C4C4"/>
<circle cx="130.5" cy="259.5" r="2.5" fill="#C4C4C4"/>
<circle cx="256.5" cy="259.5" r="2.5" fill="#C4C4C4"/>
<circle cx="130.5" cy="145.5" r="2.5" fill="#C4C4C4"/>
<circle cx="256.5" cy="145.5" r="2.5" fill="#C4C4C4"/>
<circle cx="130.5" cy="373.5" r="2.5" fill="#C4C4C4"/>
<circle cx="256.5" cy="373.5" r="2.5" fill="#C4C4C4"/>
<circle cx="130.5" cy="88.5" r="2.5" fill="#C4C4C4"/>
<circle cx="256.5" cy="88.5" r="2.5" fill="#C4C4C4"/>
<circle cx="130.5" cy="316.5" r="2.5" fill="#C4C4C4"/>
<circle cx="256.5" cy="316.5" r="2.5" fill="#C4C4C4"/>
<circle cx="130.5" cy="202.5" r="2.5" fill="#C4C4C4"/>
<circle cx="256.5" cy="202.5" r="2.5" fill="#C4C4C4"/>
<circle cx="130.5" cy="430.5" r="2.5" fill="#C4C4C4"/>
<circle cx="256.5" cy="430.5" r="2.5" fill="#C4C4C4"/>
<circle cx="130.5" cy="16.5" r="2.5" fill="#C4C4C4"/>
<circle cx="256.5" cy="16.5" r="2.5" fill="#C4C4C4"/>
<circle cx="130.5" cy="244.5" r="2.5" fill="#C4C4C4"/>
<circle cx="256.5" cy="244.5" r="2.5" fill="#C4C4C4"/>
<circle cx="130.5" cy="130.5" r="2.5" fill="#C4C4C4"/>
<circle cx="256.5" cy="130.5" r="2.5" fill="#C4C4C4"/>
<circle cx="130.5" cy="358.5" r="2.5" fill="#C4C4C4"/>
<circle cx="256.5" cy="358.5" r="2.5" fill="#C4C4C4"/>
<circle cx="130.5" cy="73.5" r="2.5" fill="#C4C4C4"/>
<circle cx="256.5" cy="73.5" r="2.5" fill="#C4C4C4"/>
<circle cx="130.5" cy="301.5" r="2.5" fill="#C4C4C4"/>
<circle cx="256.5" cy="301.5" r="2.5" fill="#C4C4C4"/>
<circle cx="130.5" cy="187.5" r="2.5" fill="#C4C4C4"/>
<circle cx="256.5" cy="187.5" r="2.5" fill="#C4C4C4"/>
<circle cx="130.5" cy="415.5" r="2.5" fill="#C4C4C4"/>
<circle cx="256.5" cy="415.5" r="2.5" fill="#C4C4C4"/>
<circle cx="130.5" cy="45.5" r="2.5" fill="#C4C4C4"/>
<circle cx="256.5" cy="45.5" r="2.5" fill="#C4C4C4"/>
<circle cx="130.5" cy="273.5" r="2.5" fill="#C4C4C4"/>
<circle cx="256.5" cy="273.5" r="2.5" fill="#C4C4C4"/>
<circle cx="130.5" cy="159.5" r="2.5" fill="#C4C4C4"/>
<circle cx="256.5" cy="159.5" r="2.5" fill="#C4C4C4"/>
<circle cx="130.5" cy="387.5" r="2.5" fill="#C4C4C4"/>
<circle cx="256.5" cy="387.5" r="2.5" fill="#C4C4C4"/>
<circle cx="130.5" cy="102.5" r="2.5" fill="#C4C4C4"/>
<circle cx="256.5" cy="102.5" r="2.5" fill="#C4C4C4"/>
<circle cx="130.5" cy="330.5" r="2.5" fill="#C4C4C4"/>
<circle cx="256.5" cy="330.5" r="2.5" fill="#C4C4C4"/>
<circle cx="130.5" cy="216.5" r="2.5" fill="#C4C4C4"/>
<circle cx="256.5" cy="216.5" r="2.5" fill="#C4C4C4"/>
<circle cx="130.5" cy="444.5" r="2.5" fill="#C4C4C4"/>
<circle cx="256.5" cy="444.5" r="2.5" fill="#C4C4C4"/>
<circle cx="66.5" cy="2.5" r="2.5" fill="#C4C4C4"/>
<circle cx="66.5" cy="230.5" r="2.5" fill="#C4C4C4"/>
<circle cx="66.5" cy="116.5" r="2.5" fill="#C4C4C4"/>
<circle cx="66.5" cy="344.5" r="2.5" fill="#C4C4C4"/>
<circle cx="66.5" cy="59.5" r="2.5" fill="#C4C4C4"/>
<circle cx="66.5" cy="287.5" r="2.5" fill="#C4C4C4"/>
<circle cx="66.5" cy="173.5" r="2.5" fill="#C4C4C4"/>
<circle cx="66.5" cy="401.5" r="2.5" fill="#C4C4C4"/>
<circle cx="66.5" cy="31.5" r="2.5" fill="#C4C4C4"/>
<circle cx="66.5" cy="259.5" r="2.5" fill="#C4C4C4"/>
<circle cx="66.5" cy="145.5" r="2.5" fill="#C4C4C4"/>
<circle cx="66.5" cy="373.5" r="2.5" fill="#C4C4C4"/>
<circle cx="66.5" cy="88.5" r="2.5" fill="#C4C4C4"/>
<circle cx="66.5" cy="316.5" r="2.5" fill="#C4C4C4"/>
<circle cx="66.5" cy="202.5" r="2.5" fill="#C4C4C4"/>
<circle cx="66.5" cy="430.5" r="2.5" fill="#C4C4C4"/>
<circle cx="66.5" cy="16.5" r="2.5" fill="#C4C4C4"/>
<circle cx="66.5" cy="244.5" r="2.5" fill="#C4C4C4"/>
<circle cx="66.5" cy="130.5" r="2.5" fill="#C4C4C4"/>
<circle cx="66.5" cy="358.5" r="2.5" fill="#C4C4C4"/>
<circle cx="66.5" cy="73.5" r="2.5" fill="#C4C4C4"/>
<circle cx="66.5" cy="301.5" r="2.5" fill="#C4C4C4"/>
<circle cx="66.5" cy="187.5" r="2.5" fill="#C4C4C4"/>
<circle cx="66.5" cy="415.5" r="2.5" fill="#C4C4C4"/>
<circle cx="66.5" cy="45.5" r="2.5" fill="#C4C4C4"/>
<circle cx="66.5" cy="273.5" r="2.5" fill="#C4C4C4"/>
<circle cx="66.5" cy="159.5" r="2.5" fill="#C4C4C4"/>
<circle cx="66.5" cy="387.5" r="2.5" fill="#C4C4C4"/>
<circle cx="66.5" cy="102.5" r="2.5" fill="#C4C4C4"/>
<circle cx="66.5" cy="330.5" r="2.5" fill="#C4C4C4"/>
<circle cx="66.5" cy="216.5" r="2.5" fill="#C4C4C4"/>
<circle cx="66.5" cy="444.5" r="2.5" fill="#C4C4C4"/>
<circle cx="192.5" cy="2.5" r="2.5" fill="#C4C4C4"/>
<circle cx="320.5" cy="2.5" r="2.5" fill="#C4C4C4"/>
<circle cx="192.5" cy="230.5" r="2.5" fill="#C4C4C4"/>
<circle cx="320.5" cy="230.5" r="2.5" fill="#C4C4C4"/>
<circle cx="192.5" cy="116.5" r="2.5" fill="#C4C4C4"/>
<circle cx="320.5" cy="116.5" r="2.5" fill="#C4C4C4"/>
<circle cx="192.5" cy="344.5" r="2.5" fill="#C4C4C4"/>
<circle cx="320.5" cy="344.5" r="2.5" fill="#C4C4C4"/>
<circle cx="192.5" cy="59.5" r="2.5" fill="#C4C4C4"/>
<circle cx="320.5" cy="59.5" r="2.5" fill="#C4C4C4"/>
<circle cx="192.5" cy="287.5" r="2.5" fill="#C4C4C4"/>
<circle cx="320.5" cy="287.5" r="2.5" fill="#C4C4C4"/>
<circle cx="192.5" cy="173.5" r="2.5" fill="#C4C4C4"/>
<circle cx="320.5" cy="173.5" r="2.5" fill="#C4C4C4"/>
<circle cx="192.5" cy="401.5" r="2.5" fill="#C4C4C4"/>
<circle cx="320.5" cy="401.5" r="2.5" fill="#C4C4C4"/>
<circle cx="192.5" cy="31.5" r="2.5" fill="#C4C4C4"/>
<circle cx="320.5" cy="31.5" r="2.5" fill="#C4C4C4"/>
<circle cx="192.5" cy="259.5" r="2.5" fill="#C4C4C4"/>
<circle cx="320.5" cy="259.5" r="2.5" fill="#C4C4C4"/>
<circle cx="192.5" cy="145.5" r="2.5" fill="#C4C4C4"/>
<circle cx="320.5" cy="145.5" r="2.5" fill="#C4C4C4"/>
<circle cx="192.5" cy="373.5" r="2.5" fill="#C4C4C4"/>
<circle cx="320.5" cy="373.5" r="2.5" fill="#C4C4C4"/>
<circle cx="192.5" cy="88.5" r="2.5" fill="#C4C4C4"/>
<circle cx="320.5" cy="88.5" r="2.5" fill="#C4C4C4"/>
<circle cx="192.5" cy="316.5" r="2.5" fill="#C4C4C4"/>
<circle cx="320.5" cy="316.5" r="2.5" fill="#C4C4C4"/>
<circle cx="192.5" cy="202.5" r="2.5" fill="#C4C4C4"/>
<circle cx="320.5" cy="202.5" r="2.5" fill="#C4C4C4"/>
<circle cx="192.5" cy="430.5" r="2.5" fill="#C4C4C4"/>
<circle cx="320.5" cy="430.5" r="2.5" fill="#C4C4C4"/>
<circle cx="192.5" cy="16.5" r="2.5" fill="#C4C4C4"/>
<circle cx="320.5" cy="16.5" r="2.5" fill="#C4C4C4"/>
<circle cx="192.5" cy="244.5" r="2.5" fill="#C4C4C4"/>
<circle cx="320.5" cy="244.5" r="2.5" fill="#C4C4C4"/>
<circle cx="192.5" cy="130.5" r="2.5" fill="#C4C4C4"/>
<circle cx="320.5" cy="130.5" r="2.5" fill="#C4C4C4"/>
<circle cx="192.5" cy="358.5" r="2.5" fill="#C4C4C4"/>
<circle cx="320.5" cy="358.5" r="2.5" fill="#C4C4C4"/>
<circle cx="192.5" cy="73.5" r="2.5" fill="#C4C4C4"/>
<circle cx="320.5" cy="73.5" r="2.5" fill="#C4C4C4"/>
<circle cx="192.5" cy="301.5" r="2.5" fill="#C4C4C4"/>
<circle cx="320.5" cy="301.5" r="2.5" fill="#C4C4C4"/>
<circle cx="192.5" cy="187.5" r="2.5" fill="#C4C4C4"/>
<circle cx="320.5" cy="187.5" r="2.5" fill="#C4C4C4"/>
<circle cx="192.5" cy="415.5" r="2.5" fill="#C4C4C4"/>
<circle cx="320.5" cy="415.5" r="2.5" fill="#C4C4C4"/>
<circle cx="192.5" cy="45.5" r="2.5" fill="#C4C4C4"/>
<circle cx="320.5" cy="45.5" r="2.5" fill="#C4C4C4"/>
<circle cx="192.5" cy="273.5" r="2.5" fill="#C4C4C4"/>
<circle cx="320.5" cy="273.5" r="2.5" fill="#C4C4C4"/>
<circle cx="192.5" cy="159.5" r="2.5" fill="#C4C4C4"/>
<circle cx="320.5" cy="159.5" r="2.5" fill="#C4C4C4"/>
<circle cx="192.5" cy="387.5" r="2.5" fill="#C4C4C4"/>
<circle cx="320.5" cy="387.5" r="2.5" fill="#C4C4C4"/>
<circle cx="192.5" cy="102.5" r="2.5" fill="#C4C4C4"/>
<circle cx="320.5" cy="102.5" r="2.5" fill="#C4C4C4"/>
<circle cx="192.5" cy="330.5" r="2.5" fill="#C4C4C4"/>
<circle cx="320.5" cy="330.5" r="2.5" fill="#C4C4C4"/>
<circle cx="192.5" cy="216.5" r="2.5" fill="#C4C4C4"/>
<circle cx="320.5" cy="216.5" r="2.5" fill="#C4C4C4"/>
<circle cx="192.5" cy="444.5" r="2.5" fill="#C4C4C4"/>
<circle cx="320.5" cy="444.5" r="2.5" fill="#C4C4C4"/>
<circle cx="18.5" cy="2.5" r="2.5" fill="#C4C4C4"/>
<circle cx="18.5" cy="230.5" r="2.5" fill="#C4C4C4"/>
<circle cx="18.5" cy="116.5" r="2.5" fill="#C4C4C4"/>
<circle cx="18.5" cy="344.5" r="2.5" fill="#C4C4C4"/>
<circle cx="18.5" cy="59.5" r="2.5" fill="#C4C4C4"/>
<circle cx="18.5" cy="287.5" r="2.5" fill="#C4C4C4"/>
<circle cx="18.5" cy="173.5" r="2.5" fill="#C4C4C4"/>
<circle cx="18.5" cy="401.5" r="2.5" fill="#C4C4C4"/>
<circle cx="18.5" cy="31.5" r="2.5" fill="#C4C4C4"/>
<circle cx="18.5" cy="259.5" r="2.5" fill="#C4C4C4"/>
<circle cx="18.5" cy="145.5" r="2.5" fill="#C4C4C4"/>
<circle cx="18.5" cy="373.5" r="2.5" fill="#C4C4C4"/>
<circle cx="18.5" cy="88.5" r="2.5" fill="#C4C4C4"/>
<circle cx="18.5" cy="316.5" r="2.5" fill="#C4C4C4"/>
<circle cx="18.5" cy="202.5" r="2.5" fill="#C4C4C4"/>
<circle cx="18.5" cy="430.5" r="2.5" fill="#C4C4C4"/>
<circle cx="18.5" cy="16.5" r="2.5" fill="#C4C4C4"/>
<circle cx="18.5" cy="244.5" r="2.5" fill="#C4C4C4"/>
<circle cx="18.5" cy="130.5" r="2.5" fill="#C4C4C4"/>
<circle cx="18.5" cy="358.5" r="2.5" fill="#C4C4C4"/>
<circle cx="18.5" cy="73.5" r="2.5" fill="#C4C4C4"/>
<circle cx="18.5" cy="301.5" r="2.5" fill="#C4C4C4"/>
<circle cx="18.5" cy="187.5" r="2.5" fill="#C4C4C4"/>
<circle cx="18.5" cy="415.5" r="2.5" fill="#C4C4C4"/>
<circle cx="18.5" cy="45.5" r="2.5" fill="#C4C4C4"/>
<circle cx="18.5" cy="273.5" r="2.5" fill="#C4C4C4"/>
<circle cx="18.5" cy="159.5" r="2.5" fill="#C4C4C4"/>
<circle cx="18.5" cy="387.5" r="2.5" fill="#C4C4C4"/>
<circle cx="18.5" cy="102.5" r="2.5" fill="#C4C4C4"/>
<circle cx="18.5" cy="330.5" r="2.5" fill="#C4C4C4"/>
<circle cx="18.5" cy="216.5" r="2.5" fill="#C4C4C4"/>
<circle cx="18.5" cy="444.5" r="2.5" fill="#C4C4C4"/>
<circle cx="146.5" cy="2.5" r="2.5" fill="#C4C4C4"/>
<circle cx="272.5" cy="2.5" r="2.5" fill="#C4C4C4"/>
<circle cx="146.5" cy="230.5" r="2.5" fill="#C4C4C4"/>
<circle cx="272.5" cy="230.5" r="2.5" fill="#C4C4C4"/>
<circle cx="146.5" cy="116.5" r="2.5" fill="#C4C4C4"/>
<circle cx="272.5" cy="116.5" r="2.5" fill="#C4C4C4"/>
<circle cx="146.5" cy="344.5" r="2.5" fill="#C4C4C4"/>
<circle cx="272.5" cy="344.5" r="2.5" fill="#C4C4C4"/>
<circle cx="146.5" cy="59.5" r="2.5" fill="#C4C4C4"/>
<circle cx="272.5" cy="59.5" r="2.5" fill="#C4C4C4"/>
<circle cx="146.5" cy="287.5" r="2.5" fill="#C4C4C4"/>
<circle cx="272.5" cy="287.5" r="2.5" fill="#C4C4C4"/>
<circle cx="146.5" cy="173.5" r="2.5" fill="#C4C4C4"/>
<circle cx="272.5" cy="173.5" r="2.5" fill="#C4C4C4"/>
<circle cx="146.5" cy="401.5" r="2.5" fill="#C4C4C4"/>
<circle cx="272.5" cy="401.5" r="2.5" fill="#C4C4C4"/>
<circle cx="146.5" cy="31.5" r="2.5" fill="#C4C4C4"/>
<circle cx="272.5" cy="31.5" r="2.5" fill="#C4C4C4"/>
<circle cx="146.5" cy="259.5" r="2.5" fill="#C4C4C4"/>
<circle cx="272.5" cy="259.5" r="2.5" fill="#C4C4C4"/>
<circle cx="146.5" cy="145.5" r="2.5" fill="#C4C4C4"/>
<circle cx="272.5" cy="145.5" r="2.5" fill="#C4C4C4"/>
<circle cx="146.5" cy="373.5" r="2.5" fill="#C4C4C4"/>
<circle cx="272.5" cy="373.5" r="2.5" fill="#C4C4C4"/>
<circle cx="146.5" cy="88.5" r="2.5" fill="#C4C4C4"/>
<circle cx="272.5" cy="88.5" r="2.5" fill="#C4C4C4"/>
<circle cx="146.5" cy="316.5" r="2.5" fill="#C4C4C4"/>
<circle cx="272.5" cy="316.5" r="2.5" fill="#C4C4C4"/>
<circle cx="146.5" cy="202.5" r="2.5" fill="#C4C4C4"/>
<circle cx="272.5" cy="202.5" r="2.5" fill="#C4C4C4"/>
<circle cx="146.5" cy="430.5" r="2.5" fill="#C4C4C4"/>
<circle cx="272.5" cy="430.5" r="2.5" fill="#C4C4C4"/>
<circle cx="146.5" cy="16.5" r="2.5" fill="#C4C4C4"/>
<circle cx="272.5" cy="16.5" r="2.5" fill="#C4C4C4"/>
<circle cx="146.5" cy="244.5" r="2.5" fill="#C4C4C4"/>
<circle cx="272.5" cy="244.5" r="2.5" fill="#C4C4C4"/>
<circle cx="146.5" cy="130.5" r="2.5" fill="#C4C4C4"/>
<circle cx="272.5" cy="130.5" r="2.5" fill="#C4C4C4"/>
<circle cx="146.5" cy="358.5" r="2.5" fill="#C4C4C4"/>
<circle cx="272.5" cy="358.5" r="2.5" fill="#C4C4C4"/>
<circle cx="146.5" cy="73.5" r="2.5" fill="#C4C4C4"/>
<circle cx="272.5" cy="73.5" r="2.5" fill="#C4C4C4"/>
<circle cx="146.5" cy="301.5" r="2.5" fill="#C4C4C4"/>
<circle cx="272.5" cy="301.5" r="2.5" fill="#C4C4C4"/>
<circle cx="146.5" cy="187.5" r="2.5" fill="#C4C4C4"/>
<circle cx="272.5" cy="187.5" r="2.5" fill="#C4C4C4"/>
<circle cx="146.5" cy="415.5" r="2.5" fill="#C4C4C4"/>
<circle cx="272.5" cy="415.5" r="2.5" fill="#C4C4C4"/>
<circle cx="146.5" cy="45.5" r="2.5" fill="#C4C4C4"/>
<circle cx="272.5" cy="45.5" r="2.5" fill="#C4C4C4"/>
<circle cx="146.5" cy="273.5" r="2.5" fill="#C4C4C4"/>
<circle cx="272.5" cy="273.5" r="2.5" fill="#C4C4C4"/>
<circle cx="146.5" cy="159.5" r="2.5" fill="#C4C4C4"/>
<circle cx="272.5" cy="159.5" r="2.5" fill="#C4C4C4"/>
<circle cx="146.5" cy="387.5" r="2.5" fill="#C4C4C4"/>
<circle cx="272.5" cy="387.5" r="2.5" fill="#C4C4C4"/>
<circle cx="146.5" cy="102.5" r="2.5" fill="#C4C4C4"/>
<circle cx="272.5" cy="102.5" r="2.5" fill="#C4C4C4"/>
<circle cx="146.5" cy="330.5" r="2.5" fill="#C4C4C4"/>
<circle cx="272.5" cy="330.5" r="2.5" fill="#C4C4C4"/>
<circle cx="146.5" cy="216.5" r="2.5" fill="#C4C4C4"/>
<circle cx="272.5" cy="216.5" r="2.5" fill="#C4C4C4"/>
<circle cx="146.5" cy="444.5" r="2.5" fill="#C4C4C4"/>
<circle cx="272.5" cy="444.5" r="2.5" fill="#C4C4C4"/>
<circle cx="82.5" cy="2.5" r="2.5" fill="#C4C4C4"/>
<circle cx="82.5" cy="230.5" r="2.5" fill="#C4C4C4"/>
<circle cx="82.5" cy="116.5" r="2.5" fill="#C4C4C4"/>
<circle cx="82.5" cy="344.5" r="2.5" fill="#C4C4C4"/>
<circle cx="82.5" cy="59.5" r="2.5" fill="#C4C4C4"/>
<circle cx="82.5" cy="287.5" r="2.5" fill="#C4C4C4"/>
<circle cx="82.5" cy="173.5" r="2.5" fill="#C4C4C4"/>
<circle cx="82.5" cy="401.5" r="2.5" fill="#C4C4C4"/>
<circle cx="82.5" cy="31.5" r="2.5" fill="#C4C4C4"/>
<circle cx="82.5" cy="259.5" r="2.5" fill="#C4C4C4"/>
<circle cx="82.5" cy="145.5" r="2.5" fill="#C4C4C4"/>
<circle cx="82.5" cy="373.5" r="2.5" fill="#C4C4C4"/>
<circle cx="82.5" cy="88.5" r="2.5" fill="#C4C4C4"/>
<circle cx="82.5" cy="316.5" r="2.5" fill="#C4C4C4"/>
<circle cx="82.5" cy="202.5" r="2.5" fill="#C4C4C4"/>
<circle cx="82.5" cy="430.5" r="2.5" fill="#C4C4C4"/>
<circle cx="82.5" cy="16.5" r="2.5" fill="#C4C4C4"/>
<circle cx="82.5" cy="244.5" r="2.5" fill="#C4C4C4"/>
<circle cx="82.5" cy="130.5" r="2.5" fill="#C4C4C4"/>
<circle cx="82.5" cy="358.5" r="2.5" fill="#C4C4C4"/>
<circle cx="82.5" cy="73.5" r="2.5" fill="#C4C4C4"/>
<circle cx="82.5" cy="301.5" r="2.5" fill="#C4C4C4"/>
<circle cx="82.5" cy="187.5" r="2.5" fill="#C4C4C4"/>
<circle cx="82.5" cy="415.5" r="2.5" fill="#C4C4C4"/>
<circle cx="82.5" cy="45.5" r="2.5" fill="#C4C4C4"/>
<circle cx="82.5" cy="273.5" r="2.5" fill="#C4C4C4"/>
<circle cx="82.5" cy="159.5" r="2.5" fill="#C4C4C4"/>
<circle cx="82.5" cy="387.5" r="2.5" fill="#C4C4C4"/>
<circle cx="82.5" cy="102.5" r="2.5" fill="#C4C4C4"/>
<circle cx="82.5" cy="330.5" r="2.5" fill="#C4C4C4"/>
<circle cx="82.5" cy="216.5" r="2.5" fill="#C4C4C4"/>
<circle cx="82.5" cy="444.5" r="2.5" fill="#C4C4C4"/>
<circle cx="208.5" cy="2.5" r="2.5" fill="#C4C4C4"/>
<circle cx="336.5" cy="2.5" r="2.5" fill="#C4C4C4"/>
<circle cx="208.5" cy="230.5" r="2.5" fill="#C4C4C4"/>
<circle cx="336.5" cy="230.5" r="2.5" fill="#C4C4C4"/>
<circle cx="208.5" cy="116.5" r="2.5" fill="#C4C4C4"/>
<circle cx="336.5" cy="116.5" r="2.5" fill="#C4C4C4"/>
<circle cx="208.5" cy="344.5" r="2.5" fill="#C4C4C4"/>
<circle cx="336.5" cy="344.5" r="2.5" fill="#C4C4C4"/>
<circle cx="208.5" cy="59.5" r="2.5" fill="#C4C4C4"/>
<circle cx="336.5" cy="59.5" r="2.5" fill="#C4C4C4"/>
<circle cx="208.5" cy="287.5" r="2.5" fill="#C4C4C4"/>
<circle cx="336.5" cy="287.5" r="2.5" fill="#C4C4C4"/>
<circle cx="208.5" cy="173.5" r="2.5" fill="#C4C4C4"/>
<circle cx="336.5" cy="173.5" r="2.5" fill="#C4C4C4"/>
<circle cx="208.5" cy="401.5" r="2.5" fill="#C4C4C4"/>
<circle cx="336.5" cy="401.5" r="2.5" fill="#C4C4C4"/>
<circle cx="208.5" cy="31.5" r="2.5" fill="#C4C4C4"/>
<circle cx="336.5" cy="31.5" r="2.5" fill="#C4C4C4"/>
<circle cx="208.5" cy="259.5" r="2.5" fill="#C4C4C4"/>
<circle cx="336.5" cy="259.5" r="2.5" fill="#C4C4C4"/>
<circle cx="208.5" cy="145.5" r="2.5" fill="#C4C4C4"/>
<circle cx="336.5" cy="145.5" r="2.5" fill="#C4C4C4"/>
<circle cx="208.5" cy="373.5" r="2.5" fill="#C4C4C4"/>
<circle cx="336.5" cy="373.5" r="2.5" fill="#C4C4C4"/>
<circle cx="208.5" cy="88.5" r="2.5" fill="#C4C4C4"/>
<circle cx="336.5" cy="88.5" r="2.5" fill="#C4C4C4"/>
<circle cx="208.5" cy="316.5" r="2.5" fill="#C4C4C4"/>
<circle cx="336.5" cy="316.5" r="2.5" fill="#C4C4C4"/>
<circle cx="208.5" cy="202.5" r="2.5" fill="#C4C4C4"/>
<circle cx="336.5" cy="202.5" r="2.5" fill="#C4C4C4"/>
<circle cx="208.5" cy="430.5" r="2.5" fill="#C4C4C4"/>
<circle cx="336.5" cy="430.5" r="2.5" fill="#C4C4C4"/>
<circle cx="208.5" cy="16.5" r="2.5" fill="#C4C4C4"/>
<circle cx="336.5" cy="16.5" r="2.5" fill="#C4C4C4"/>
<circle cx="208.5" cy="244.5" r="2.5" fill="#C4C4C4"/>
<circle cx="336.5" cy="244.5" r="2.5" fill="#C4C4C4"/>
<circle cx="208.5" cy="130.5" r="2.5" fill="#C4C4C4"/>
<circle cx="336.5" cy="130.5" r="2.5" fill="#C4C4C4"/>
<circle cx="208.5" cy="358.5" r="2.5" fill="#C4C4C4"/>
<circle cx="336.5" cy="358.5" r="2.5" fill="#C4C4C4"/>
<circle cx="208.5" cy="73.5" r="2.5" fill="#C4C4C4"/>
<circle cx="336.5" cy="73.5" r="2.5" fill="#C4C4C4"/>
<circle cx="208.5" cy="301.5" r="2.5" fill="#C4C4C4"/>
<circle cx="336.5" cy="301.5" r="2.5" fill="#C4C4C4"/>
<circle cx="208.5" cy="187.5" r="2.5" fill="#C4C4C4"/>
<circle cx="336.5" cy="187.5" r="2.5" fill="#C4C4C4"/>
<circle cx="208.5" cy="415.5" r="2.5" fill="#C4C4C4"/>
<circle cx="336.5" cy="415.5" r="2.5" fill="#C4C4C4"/>
<circle cx="208.5" cy="45.5" r="2.5" fill="#C4C4C4"/>
<circle cx="336.5" cy="45.5" r="2.5" fill="#C4C4C4"/>
<circle cx="208.5" cy="273.5" r="2.5" fill="#C4C4C4"/>
<circle cx="336.5" cy="273.5" r="2.5" fill="#C4C4C4"/>
<circle cx="208.5" cy="159.5" r="2.5" fill="#C4C4C4"/>
<circle cx="336.5" cy="159.5" r="2.5" fill="#C4C4C4"/>
<circle cx="208.5" cy="387.5" r="2.5" fill="#C4C4C4"/>
<circle cx="336.5" cy="387.5" r="2.5" fill="#C4C4C4"/>
<circle cx="208.5" cy="102.5" r="2.5" fill="#C4C4C4"/>
<circle cx="336.5" cy="102.5" r="2.5" fill="#C4C4C4"/>
<circle cx="208.5" cy="330.5" r="2.5" fill="#C4C4C4"/>
<circle cx="336.5" cy="330.5" r="2.5" fill="#C4C4C4"/>
<circle cx="208.5" cy="216.5" r="2.5" fill="#C4C4C4"/>
<circle cx="336.5" cy="216.5" r="2.5" fill="#C4C4C4"/>
<circle cx="208.5" cy="444.5" r="2.5" fill="#C4C4C4"/>
<circle cx="336.5" cy="444.5" r="2.5" fill="#C4C4C4"/>
<circle cx="34.5" cy="2.5" r="2.5" fill="#C4C4C4"/>
<circle cx="34.5" cy="230.5" r="2.5" fill="#C4C4C4"/>
<circle cx="34.5" cy="116.5" r="2.5" fill="#C4C4C4"/>
<circle cx="34.5" cy="344.5" r="2.5" fill="#C4C4C4"/>
<circle cx="34.5" cy="59.5" r="2.5" fill="#C4C4C4"/>
<circle cx="34.5" cy="287.5" r="2.5" fill="#C4C4C4"/>
<circle cx="34.5" cy="173.5" r="2.5" fill="#C4C4C4"/>
<circle cx="34.5" cy="401.5" r="2.5" fill="#C4C4C4"/>
<circle cx="34.5" cy="31.5" r="2.5" fill="#C4C4C4"/>
<circle cx="34.5" cy="259.5" r="2.5" fill="#C4C4C4"/>
<circle cx="34.5" cy="145.5" r="2.5" fill="#C4C4C4"/>
<circle cx="34.5" cy="373.5" r="2.5" fill="#C4C4C4"/>
<circle cx="34.5" cy="88.5" r="2.5" fill="#C4C4C4"/>
<circle cx="34.5" cy="316.5" r="2.5" fill="#C4C4C4"/>
<circle cx="34.5" cy="202.5" r="2.5" fill="#C4C4C4"/>
<circle cx="34.5" cy="430.5" r="2.5" fill="#C4C4C4"/>
<circle cx="34.5" cy="16.5" r="2.5" fill="#C4C4C4"/>
<circle cx="34.5" cy="244.5" r="2.5" fill="#C4C4C4"/>
<circle cx="34.5" cy="130.5" r="2.5" fill="#C4C4C4"/>
<circle cx="34.5" cy="358.5" r="2.5" fill="#C4C4C4"/>
<circle cx="34.5" cy="73.5" r="2.5" fill="#C4C4C4"/>
<circle cx="34.5" cy="301.5" r="2.5" fill="#C4C4C4"/>
<circle cx="34.5" cy="187.5" r="2.5" fill="#C4C4C4"/>
<circle cx="34.5" cy="415.5" r="2.5" fill="#C4C4C4"/>
<circle cx="34.5" cy="45.5" r="2.5" fill="#C4C4C4"/>
<circle cx="34.5" cy="273.5" r="2.5" fill="#C4C4C4"/>
<circle cx="34.5" cy="159.5" r="2.5" fill="#C4C4C4"/>
<circle cx="34.5" cy="387.5" r="2.5" fill="#C4C4C4"/>
<circle cx="34.5" cy="102.5" r="2.5" fill="#C4C4C4"/>
<circle cx="34.5" cy="330.5" r="2.5" fill="#C4C4C4"/>
<circle cx="34.5" cy="216.5" r="2.5" fill="#C4C4C4"/>
<circle cx="34.5" cy="444.5" r="2.5" fill="#C4C4C4"/>
<circle cx="162.5" cy="2.5" r="2.5" fill="#C4C4C4"/>
<circle cx="288.5" cy="2.5" r="2.5" fill="#C4C4C4"/>
<circle cx="162.5" cy="230.5" r="2.5" fill="#C4C4C4"/>
<circle cx="288.5" cy="230.5" r="2.5" fill="#C4C4C4"/>
<circle cx="162.5" cy="116.5" r="2.5" fill="#C4C4C4"/>
<circle cx="288.5" cy="116.5" r="2.5" fill="#C4C4C4"/>
<circle cx="162.5" cy="344.5" r="2.5" fill="#C4C4C4"/>
<circle cx="288.5" cy="344.5" r="2.5" fill="#C4C4C4"/>
<circle cx="162.5" cy="59.5" r="2.5" fill="#C4C4C4"/>
<circle cx="288.5" cy="59.5" r="2.5" fill="#C4C4C4"/>
<circle cx="162.5" cy="287.5" r="2.5" fill="#C4C4C4"/>
<circle cx="288.5" cy="287.5" r="2.5" fill="#C4C4C4"/>
<circle cx="162.5" cy="173.5" r="2.5" fill="#C4C4C4"/>
<circle cx="288.5" cy="173.5" r="2.5" fill="#C4C4C4"/>
<circle cx="162.5" cy="401.5" r="2.5" fill="#C4C4C4"/>
<circle cx="288.5" cy="401.5" r="2.5" fill="#C4C4C4"/>
<circle cx="162.5" cy="31.5" r="2.5" fill="#C4C4C4"/>
<circle cx="288.5" cy="31.5" r="2.5" fill="#C4C4C4"/>
<circle cx="162.5" cy="259.5" r="2.5" fill="#C4C4C4"/>
<circle cx="288.5" cy="259.5" r="2.5" fill="#C4C4C4"/>
<circle cx="162.5" cy="145.5" r="2.5" fill="#C4C4C4"/>
<circle cx="288.5" cy="145.5" r="2.5" fill="#C4C4C4"/>
<circle cx="162.5" cy="373.5" r="2.5" fill="#C4C4C4"/>
<circle cx="288.5" cy="373.5" r="2.5" fill="#C4C4C4"/>
<circle cx="162.5" cy="88.5" r="2.5" fill="#C4C4C4"/>
<circle cx="288.5" cy="88.5" r="2.5" fill="#C4C4C4"/>
<circle cx="162.5" cy="316.5" r="2.5" fill="#C4C4C4"/>
<circle cx="288.5" cy="316.5" r="2.5" fill="#C4C4C4"/>
<circle cx="162.5" cy="202.5" r="2.5" fill="#C4C4C4"/>
<circle cx="288.5" cy="202.5" r="2.5" fill="#C4C4C4"/>
<circle cx="162.5" cy="430.5" r="2.5" fill="#C4C4C4"/>
<circle cx="288.5" cy="430.5" r="2.5" fill="#C4C4C4"/>
<circle cx="162.5" cy="16.5" r="2.5" fill="#C4C4C4"/>
<circle cx="288.5" cy="16.5" r="2.5" fill="#C4C4C4"/>
<circle cx="162.5" cy="244.5" r="2.5" fill="#C4C4C4"/>
<circle cx="288.5" cy="244.5" r="2.5" fill="#C4C4C4"/>
<circle cx="162.5" cy="130.5" r="2.5" fill="#C4C4C4"/>
<circle cx="288.5" cy="130.5" r="2.5" fill="#C4C4C4"/>
<circle cx="162.5" cy="358.5" r="2.5" fill="#C4C4C4"/>
<circle cx="288.5" cy="358.5" r="2.5" fill="#C4C4C4"/>
<circle cx="162.5" cy="73.5" r="2.5" fill="#C4C4C4"/>
<circle cx="288.5" cy="73.5" r="2.5" fill="#C4C4C4"/>
<circle cx="162.5" cy="301.5" r="2.5" fill="#C4C4C4"/>
<circle cx="288.5" cy="301.5" r="2.5" fill="#C4C4C4"/>
<circle cx="162.5" cy="187.5" r="2.5" fill="#C4C4C4"/>
<circle cx="288.5" cy="187.5" r="2.5" fill="#C4C4C4"/>
<circle cx="162.5" cy="415.5" r="2.5" fill="#C4C4C4"/>
<circle cx="288.5" cy="415.5" r="2.5" fill="#C4C4C4"/>
<circle cx="162.5" cy="45.5" r="2.5" fill="#C4C4C4"/>
<circle cx="288.5" cy="45.5" r="2.5" fill="#C4C4C4"/>
<circle cx="162.5" cy="273.5" r="2.5" fill="#C4C4C4"/>
<circle cx="288.5" cy="273.5" r="2.5" fill="#C4C4C4"/>
<circle cx="162.5" cy="159.5" r="2.5" fill="#C4C4C4"/>
<circle cx="288.5" cy="159.5" r="2.5" fill="#C4C4C4"/>
<circle cx="162.5" cy="387.5" r="2.5" fill="#C4C4C4"/>
<circle cx="288.5" cy="387.5" r="2.5" fill="#C4C4C4"/>
<circle cx="162.5" cy="102.5" r="2.5" fill="#C4C4C4"/>
<circle cx="288.5" cy="102.5" r="2.5" fill="#C4C4C4"/>
<circle cx="162.5" cy="330.5" r="2.5" fill="#C4C4C4"/>
<circle cx="288.5" cy="330.5" r="2.5" fill="#C4C4C4"/>
<circle cx="162.5" cy="216.5" r="2.5" fill="#C4C4C4"/>
<circle cx="288.5" cy="216.5" r="2.5" fill="#C4C4C4"/>
<circle cx="162.5" cy="444.5" r="2.5" fill="#C4C4C4"/>
<circle cx="288.5" cy="444.5" r="2.5" fill="#C4C4C4"/>
<circle cx="98.5" cy="2.5" r="2.5" fill="#C4C4C4"/>
<circle cx="98.5" cy="230.5" r="2.5" fill="#C4C4C4"/>
<circle cx="98.5" cy="116.5" r="2.5" fill="#C4C4C4"/>
<circle cx="98.5" cy="344.5" r="2.5" fill="#C4C4C4"/>
<circle cx="98.5" cy="59.5" r="2.5" fill="#C4C4C4"/>
<circle cx="98.5" cy="287.5" r="2.5" fill="#C4C4C4"/>
<circle cx="98.5" cy="173.5" r="2.5" fill="#C4C4C4"/>
<circle cx="98.5" cy="401.5" r="2.5" fill="#C4C4C4"/>
<circle cx="98.5" cy="31.5" r="2.5" fill="#C4C4C4"/>
<circle cx="98.5" cy="259.5" r="2.5" fill="#C4C4C4"/>
<circle cx="98.5" cy="145.5" r="2.5" fill="#C4C4C4"/>
<circle cx="98.5" cy="373.5" r="2.5" fill="#C4C4C4"/>
<circle cx="98.5" cy="88.5" r="2.5" fill="#C4C4C4"/>
<circle cx="98.5" cy="316.5" r="2.5" fill="#C4C4C4"/>
<circle cx="98.5" cy="202.5" r="2.5" fill="#C4C4C4"/>
<circle cx="98.5" cy="430.5" r="2.5" fill="#C4C4C4"/>
<circle cx="98.5" cy="16.5" r="2.5" fill="#C4C4C4"/>
<circle cx="98.5" cy="244.5" r="2.5" fill="#C4C4C4"/>
<circle cx="98.5" cy="130.5" r="2.5" fill="#C4C4C4"/>
<circle cx="98.5" cy="358.5" r="2.5" fill="#C4C4C4"/>
<circle cx="98.5" cy="73.5" r="2.5" fill="#C4C4C4"/>
<circle cx="98.5" cy="301.5" r="2.5" fill="#C4C4C4"/>
<circle cx="98.5" cy="187.5" r="2.5" fill="#C4C4C4"/>
<circle cx="98.5" cy="415.5" r="2.5" fill="#C4C4C4"/>
<circle cx="98.5" cy="45.5" r="2.5" fill="#C4C4C4"/>
<circle cx="98.5" cy="273.5" r="2.5" fill="#C4C4C4"/>
<circle cx="98.5" cy="159.5" r="2.5" fill="#C4C4C4"/>
<circle cx="98.5" cy="387.5" r="2.5" fill="#C4C4C4"/>
<circle cx="98.5" cy="102.5" r="2.5" fill="#C4C4C4"/>
<circle cx="98.5" cy="330.5" r="2.5" fill="#C4C4C4"/>
<circle cx="98.5" cy="216.5" r="2.5" fill="#C4C4C4"/>
<circle cx="98.5" cy="444.5" r="2.5" fill="#C4C4C4"/>
<circle cx="224.5" cy="2.5" r="2.5" fill="#C4C4C4"/>
<circle cx="352.5" cy="2.5" r="2.5" fill="#C4C4C4"/>
<circle cx="224.5" cy="230.5" r="2.5" fill="#C4C4C4"/>
<circle cx="352.5" cy="230.5" r="2.5" fill="#C4C4C4"/>
<circle cx="224.5" cy="116.5" r="2.5" fill="#C4C4C4"/>
<circle cx="352.5" cy="116.5" r="2.5" fill="#C4C4C4"/>
<circle cx="224.5" cy="344.5" r="2.5" fill="#C4C4C4"/>
<circle cx="352.5" cy="344.5" r="2.5" fill="#C4C4C4"/>
<circle cx="224.5" cy="59.5" r="2.5" fill="#C4C4C4"/>
<circle cx="352.5" cy="59.5" r="2.5" fill="#C4C4C4"/>
<circle cx="224.5" cy="287.5" r="2.5" fill="#C4C4C4"/>
<circle cx="352.5" cy="287.5" r="2.5" fill="#C4C4C4"/>
<circle cx="224.5" cy="173.5" r="2.5" fill="#C4C4C4"/>
<circle cx="352.5" cy="173.5" r="2.5" fill="#C4C4C4"/>
<circle cx="224.5" cy="401.5" r="2.5" fill="#C4C4C4"/>
<circle cx="352.5" cy="401.5" r="2.5" fill="#C4C4C4"/>
<circle cx="224.5" cy="31.5" r="2.5" fill="#C4C4C4"/>
<circle cx="352.5" cy="31.5" r="2.5" fill="#C4C4C4"/>
<circle cx="224.5" cy="259.5" r="2.5" fill="#C4C4C4"/>
<circle cx="352.5" cy="259.5" r="2.5" fill="#C4C4C4"/>
<circle cx="224.5" cy="145.5" r="2.5" fill="#C4C4C4"/>
<circle cx="352.5" cy="145.5" r="2.5" fill="#C4C4C4"/>
<circle cx="224.5" cy="373.5" r="2.5" fill="#C4C4C4"/>
<circle cx="352.5" cy="373.5" r="2.5" fill="#C4C4C4"/>
<circle cx="224.5" cy="88.5" r="2.5" fill="#C4C4C4"/>
<circle cx="352.5" cy="88.5" r="2.5" fill="#C4C4C4"/>
<circle cx="224.5" cy="316.5" r="2.5" fill="#C4C4C4"/>
<circle cx="352.5" cy="316.5" r="2.5" fill="#C4C4C4"/>
<circle cx="224.5" cy="202.5" r="2.5" fill="#C4C4C4"/>
<circle cx="352.5" cy="202.5" r="2.5" fill="#C4C4C4"/>
<circle cx="224.5" cy="430.5" r="2.5" fill="#C4C4C4"/>
<circle cx="352.5" cy="430.5" r="2.5" fill="#C4C4C4"/>
<circle cx="224.5" cy="16.5" r="2.5" fill="#C4C4C4"/>
<circle cx="352.5" cy="16.5" r="2.5" fill="#C4C4C4"/>
<circle cx="224.5" cy="244.5" r="2.5" fill="#C4C4C4"/>
<circle cx="352.5" cy="244.5" r="2.5" fill="#C4C4C4"/>
<circle cx="224.5" cy="130.5" r="2.5" fill="#C4C4C4"/>
<circle cx="352.5" cy="130.5" r="2.5" fill="#C4C4C4"/>
<circle cx="224.5" cy="358.5" r="2.5" fill="#C4C4C4"/>
<circle cx="352.5" cy="358.5" r="2.5" fill="#C4C4C4"/>
<circle cx="224.5" cy="73.5" r="2.5" fill="#C4C4C4"/>
<circle cx="352.5" cy="73.5" r="2.5" fill="#C4C4C4"/>
<circle cx="224.5" cy="301.5" r="2.5" fill="#C4C4C4"/>
<circle cx="352.5" cy="301.5" r="2.5" fill="#C4C4C4"/>
<circle cx="224.5" cy="187.5" r="2.5" fill="#C4C4C4"/>
<circle cx="352.5" cy="187.5" r="2.5" fill="#C4C4C4"/>
<circle cx="224.5" cy="415.5" r="2.5" fill="#C4C4C4"/>
<circle cx="352.5" cy="415.5" r="2.5" fill="#C4C4C4"/>
<circle cx="224.5" cy="45.5" r="2.5" fill="#C4C4C4"/>
<circle cx="352.5" cy="45.5" r="2.5" fill="#C4C4C4"/>
<circle cx="224.5" cy="273.5" r="2.5" fill="#C4C4C4"/>
<circle cx="352.5" cy="273.5" r="2.5" fill="#C4C4C4"/>
<circle cx="224.5" cy="159.5" r="2.5" fill="#C4C4C4"/>
<circle cx="352.5" cy="159.5" r="2.5" fill="#C4C4C4"/>
<circle cx="224.5" cy="387.5" r="2.5" fill="#C4C4C4"/>
<circle cx="352.5" cy="387.5" r="2.5" fill="#C4C4C4"/>
<circle cx="224.5" cy="102.5" r="2.5" fill="#C4C4C4"/>
<circle cx="352.5" cy="102.5" r="2.5" fill="#C4C4C4"/>
<circle cx="224.5" cy="330.5" r="2.5" fill="#C4C4C4"/>
<circle cx="352.5" cy="330.5" r="2.5" fill="#C4C4C4"/>
<circle cx="224.5" cy="216.5" r="2.5" fill="#C4C4C4"/>
<circle cx="352.5" cy="216.5" r="2.5" fill="#C4C4C4"/>
<circle cx="224.5" cy="444.5" r="2.5" fill="#C4C4C4"/>
<circle cx="352.5" cy="444.5" r="2.5" fill="#C4C4C4"/>
<circle cx="50.5" cy="2.5" r="2.5" fill="#C4C4C4"/>
<circle cx="50.5" cy="230.5" r="2.5" fill="#C4C4C4"/>
<circle cx="50.5" cy="116.5" r="2.5" fill="#C4C4C4"/>
<circle cx="50.5" cy="344.5" r="2.5" fill="#C4C4C4"/>
<circle cx="50.5" cy="59.5" r="2.5" fill="#C4C4C4"/>
<circle cx="50.5" cy="287.5" r="2.5" fill="#C4C4C4"/>
<circle cx="50.5" cy="173.5" r="2.5" fill="#C4C4C4"/>
<circle cx="50.5" cy="401.5" r="2.5" fill="#C4C4C4"/>
<circle cx="50.5" cy="31.5" r="2.5" fill="#C4C4C4"/>
<circle cx="50.5" cy="259.5" r="2.5" fill="#C4C4C4"/>
<circle cx="50.5" cy="145.5" r="2.5" fill="#C4C4C4"/>
<circle cx="50.5" cy="373.5" r="2.5" fill="#C4C4C4"/>
<circle cx="50.5" cy="88.5" r="2.5" fill="#C4C4C4"/>
<circle cx="50.5" cy="316.5" r="2.5" fill="#C4C4C4"/>
<circle cx="50.5" cy="202.5" r="2.5" fill="#C4C4C4"/>
<circle cx="50.5" cy="430.5" r="2.5" fill="#C4C4C4"/>
<circle cx="50.5" cy="16.5" r="2.5" fill="#C4C4C4"/>
<circle cx="50.5" cy="244.5" r="2.5" fill="#C4C4C4"/>
<circle cx="50.5" cy="130.5" r="2.5" fill="#C4C4C4"/>
<circle cx="50.5" cy="358.5" r="2.5" fill="#C4C4C4"/>
<circle cx="50.5" cy="73.5" r="2.5" fill="#C4C4C4"/>
<circle cx="50.5" cy="301.5" r="2.5" fill="#C4C4C4"/>
<circle cx="50.5" cy="187.5" r="2.5" fill="#C4C4C4"/>
<circle cx="50.5" cy="415.5" r="2.5" fill="#C4C4C4"/>
<circle cx="50.5" cy="45.5" r="2.5" fill="#C4C4C4"/>
<circle cx="50.5" cy="273.5" r="2.5" fill="#C4C4C4"/>
<circle cx="50.5" cy="159.5" r="2.5" fill="#C4C4C4"/>
<circle cx="50.5" cy="387.5" r="2.5" fill="#C4C4C4"/>
<circle cx="50.5" cy="102.5" r="2.5" fill="#C4C4C4"/>
<circle cx="50.5" cy="330.5" r="2.5" fill="#C4C4C4"/>
<circle cx="50.5" cy="216.5" r="2.5" fill="#C4C4C4"/>
<circle cx="50.5" cy="444.5" r="2.5" fill="#C4C4C4"/>
<circle cx="176.5" cy="2.5" r="2.5" fill="#C4C4C4"/>
<circle cx="304.5" cy="2.5" r="2.5" fill="#C4C4C4"/>
<circle cx="176.5" cy="230.5" r="2.5" fill="#C4C4C4"/>
<circle cx="304.5" cy="230.5" r="2.5" fill="#C4C4C4"/>
<circle cx="176.5" cy="116.5" r="2.5" fill="#C4C4C4"/>
<circle cx="304.5" cy="116.5" r="2.5" fill="#C4C4C4"/>
<circle cx="176.5" cy="344.5" r="2.5" fill="#C4C4C4"/>
<circle cx="304.5" cy="344.5" r="2.5" fill="#C4C4C4"/>
<circle cx="176.5" cy="59.5" r="2.5" fill="#C4C4C4"/>
<circle cx="304.5" cy="59.5" r="2.5" fill="#C4C4C4"/>
<circle cx="176.5" cy="287.5" r="2.5" fill="#C4C4C4"/>
<circle cx="304.5" cy="287.5" r="2.5" fill="#C4C4C4"/>
<circle cx="176.5" cy="173.5" r="2.5" fill="#C4C4C4"/>
<circle cx="304.5" cy="173.5" r="2.5" fill="#C4C4C4"/>
<circle cx="176.5" cy="401.5" r="2.5" fill="#C4C4C4"/>
<circle cx="304.5" cy="401.5" r="2.5" fill="#C4C4C4"/>
<circle cx="176.5" cy="31.5" r="2.5" fill="#C4C4C4"/>
<circle cx="304.5" cy="31.5" r="2.5" fill="#C4C4C4"/>
<circle cx="176.5" cy="259.5" r="2.5" fill="#C4C4C4"/>
<circle cx="304.5" cy="259.5" r="2.5" fill="#C4C4C4"/>
<circle cx="176.5" cy="145.5" r="2.5" fill="#C4C4C4"/>
<circle cx="304.5" cy="145.5" r="2.5" fill="#C4C4C4"/>
<circle cx="176.5" cy="373.5" r="2.5" fill="#C4C4C4"/>
<circle cx="304.5" cy="373.5" r="2.5" fill="#C4C4C4"/>
<circle cx="176.5" cy="88.5" r="2.5" fill="#C4C4C4"/>
<circle cx="304.5" cy="88.5" r="2.5" fill="#C4C4C4"/>
<circle cx="176.5" cy="316.5" r="2.5" fill="#C4C4C4"/>
<circle cx="304.5" cy="316.5" r="2.5" fill="#C4C4C4"/>
<circle cx="176.5" cy="202.5" r="2.5" fill="#C4C4C4"/>
<circle cx="304.5" cy="202.5" r="2.5" fill="#C4C4C4"/>
<circle cx="176.5" cy="430.5" r="2.5" fill="#C4C4C4"/>
<circle cx="304.5" cy="430.5" r="2.5" fill="#C4C4C4"/>
<circle cx="176.5" cy="16.5" r="2.5" fill="#C4C4C4"/>
<circle cx="304.5" cy="16.5" r="2.5" fill="#C4C4C4"/>
<circle cx="176.5" cy="244.5" r="2.5" fill="#C4C4C4"/>
<circle cx="304.5" cy="244.5" r="2.5" fill="#C4C4C4"/>
<circle cx="176.5" cy="130.5" r="2.5" fill="#C4C4C4"/>
<circle cx="304.5" cy="130.5" r="2.5" fill="#C4C4C4"/>
<circle cx="176.5" cy="358.5" r="2.5" fill="#C4C4C4"/>
<circle cx="304.5" cy="358.5" r="2.5" fill="#C4C4C4"/>
<circle cx="176.5" cy="73.5" r="2.5" fill="#C4C4C4"/>
<circle cx="304.5" cy="73.5" r="2.5" fill="#C4C4C4"/>
<circle cx="176.5" cy="301.5" r="2.5" fill="#C4C4C4"/>
<circle cx="304.5" cy="301.5" r="2.5" fill="#C4C4C4"/>
<circle cx="176.5" cy="187.5" r="2.5" fill="#C4C4C4"/>
<circle cx="304.5" cy="187.5" r="2.5" fill="#C4C4C4"/>
<circle cx="176.5" cy="415.5" r="2.5" fill="#C4C4C4"/>
<circle cx="304.5" cy="415.5" r="2.5" fill="#C4C4C4"/>
<circle cx="176.5" cy="45.5" r="2.5" fill="#C4C4C4"/>
<circle cx="304.5" cy="45.5" r="2.5" fill="#C4C4C4"/>
<circle cx="176.5" cy="273.5" r="2.5" fill="#C4C4C4"/>
<circle cx="304.5" cy="273.5" r="2.5" fill="#C4C4C4"/>
<circle cx="176.5" cy="159.5" r="2.5" fill="#C4C4C4"/>
<circle cx="304.5" cy="159.5" r="2.5" fill="#C4C4C4"/>
<circle cx="176.5" cy="387.5" r="2.5" fill="#C4C4C4"/>
<circle cx="304.5" cy="387.5" r="2.5" fill="#C4C4C4"/>
<circle cx="176.5" cy="102.5" r="2.5" fill="#C4C4C4"/>
<circle cx="304.5" cy="102.5" r="2.5" fill="#C4C4C4"/>
<circle cx="176.5" cy="330.5" r="2.5" fill="#C4C4C4"/>
<circle cx="304.5" cy="330.5" r="2.5" fill="#C4C4C4"/>
<circle cx="176.5" cy="216.5" r="2.5" fill="#C4C4C4"/>
<circle cx="304.5" cy="216.5" r="2.5" fill="#C4C4C4"/>
<circle cx="176.5" cy="444.5" r="2.5" fill="#C4C4C4"/>
<circle cx="304.5" cy="444.5" r="2.5" fill="#C4C4C4"/>
<circle cx="114.5" cy="2.5" r="2.5" fill="#C4C4C4"/>
<circle cx="114.5" cy="230.5" r="2.5" fill="#C4C4C4"/>
<circle cx="114.5" cy="116.5" r="2.5" fill="#C4C4C4"/>
<circle cx="114.5" cy="344.5" r="2.5" fill="#C4C4C4"/>
<circle cx="114.5" cy="59.5" r="2.5" fill="#C4C4C4"/>
<circle cx="114.5" cy="287.5" r="2.5" fill="#C4C4C4"/>
<circle cx="114.5" cy="173.5" r="2.5" fill="#C4C4C4"/>
<circle cx="114.5" cy="401.5" r="2.5" fill="#C4C4C4"/>
<circle cx="114.5" cy="31.5" r="2.5" fill="#C4C4C4"/>
<circle cx="114.5" cy="259.5" r="2.5" fill="#C4C4C4"/>
<circle cx="114.5" cy="145.5" r="2.5" fill="#C4C4C4"/>
<circle cx="114.5" cy="373.5" r="2.5" fill="#C4C4C4"/>
<circle cx="114.5" cy="88.5" r="2.5" fill="#C4C4C4"/>
<circle cx="114.5" cy="316.5" r="2.5" fill="#C4C4C4"/>
<circle cx="114.5" cy="202.5" r="2.5" fill="#C4C4C4"/>
<circle cx="114.5" cy="430.5" r="2.5" fill="#C4C4C4"/>
<circle cx="114.5" cy="16.5" r="2.5" fill="#C4C4C4"/>
<circle cx="114.5" cy="244.5" r="2.5" fill="#C4C4C4"/>
<circle cx="114.5" cy="130.5" r="2.5" fill="#C4C4C4"/>
<circle cx="114.5" cy="358.5" r="2.5" fill="#C4C4C4"/>
<circle cx="114.5" cy="73.5" r="2.5" fill="#C4C4C4"/>
<circle cx="114.5" cy="301.5" r="2.5" fill="#C4C4C4"/>
<circle cx="114.5" cy="187.5" r="2.5" fill="#C4C4C4"/>
<circle cx="114.5" cy="415.5" r="2.5" fill="#C4C4C4"/>
<circle cx="114.5" cy="45.5" r="2.5" fill="#C4C4C4"/>
<circle cx="114.5" cy="273.5" r="2.5" fill="#C4C4C4"/>
<circle cx="114.5" cy="159.5" r="2.5" fill="#C4C4C4"/>
<circle cx="114.5" cy="387.5" r="2.5" fill="#C4C4C4"/>
<circle cx="114.5" cy="102.5" r="2.5" fill="#C4C4C4"/>
<circle cx="114.5" cy="330.5" r="2.5" fill="#C4C4C4"/>
<circle cx="114.5" cy="216.5" r="2.5" fill="#C4C4C4"/>
<circle cx="114.5" cy="444.5" r="2.5" fill="#C4C4C4"/>
<circle cx="240.5" cy="2.5" r="2.5" fill="#C4C4C4"/>
<circle cx="368.5" cy="2.5" r="2.5" fill="#C4C4C4"/>
<circle cx="240.5" cy="230.5" r="2.5" fill="#C4C4C4"/>
<circle cx="368.5" cy="230.5" r="2.5" fill="#C4C4C4"/>
<circle cx="240.5" cy="116.5" r="2.5" fill="#C4C4C4"/>
<circle cx="368.5" cy="116.5" r="2.5" fill="#C4C4C4"/>
<circle cx="240.5" cy="344.5" r="2.5" fill="#C4C4C4"/>
<circle cx="368.5" cy="344.5" r="2.5" fill="#C4C4C4"/>
<circle cx="240.5" cy="59.5" r="2.5" fill="#C4C4C4"/>
<circle cx="368.5" cy="59.5" r="2.5" fill="#C4C4C4"/>
<circle cx="240.5" cy="287.5" r="2.5" fill="#C4C4C4"/>
<circle cx="368.5" cy="287.5" r="2.5" fill="#C4C4C4"/>
<circle cx="240.5" cy="173.5" r="2.5" fill="#C4C4C4"/>
<circle cx="368.5" cy="173.5" r="2.5" fill="#C4C4C4"/>
<circle cx="240.5" cy="401.5" r="2.5" fill="#C4C4C4"/>
<circle cx="368.5" cy="401.5" r="2.5" fill="#C4C4C4"/>
<circle cx="240.5" cy="31.5" r="2.5" fill="#C4C4C4"/>
<circle cx="368.5" cy="31.5" r="2.5" fill="#C4C4C4"/>
<circle cx="240.5" cy="259.5" r="2.5" fill="#C4C4C4"/>
<circle cx="368.5" cy="259.5" r="2.5" fill="#C4C4C4"/>
<circle cx="240.5" cy="145.5" r="2.5" fill="#C4C4C4"/>
<circle cx="368.5" cy="145.5" r="2.5" fill="#C4C4C4"/>
<circle cx="240.5" cy="373.5" r="2.5" fill="#C4C4C4"/>
<circle cx="368.5" cy="373.5" r="2.5" fill="#C4C4C4"/>
<circle cx="240.5" cy="88.5" r="2.5" fill="#C4C4C4"/>
<circle cx="368.5" cy="88.5" r="2.5" fill="#C4C4C4"/>
<circle cx="240.5" cy="316.5" r="2.5" fill="#C4C4C4"/>
<circle cx="368.5" cy="316.5" r="2.5" fill="#C4C4C4"/>
<circle cx="240.5" cy="202.5" r="2.5" fill="#C4C4C4"/>
<circle cx="368.5" cy="202.5" r="2.5" fill="#C4C4C4"/>
<circle cx="240.5" cy="430.5" r="2.5" fill="#C4C4C4"/>
<circle cx="368.5" cy="430.5" r="2.5" fill="#C4C4C4"/>
<circle cx="240.5" cy="16.5" r="2.5" fill="#C4C4C4"/>
<circle cx="368.5" cy="16.5" r="2.5" fill="#C4C4C4"/>
<circle cx="240.5" cy="244.5" r="2.5" fill="#C4C4C4"/>
<circle cx="368.5" cy="244.5" r="2.5" fill="#C4C4C4"/>
<circle cx="240.5" cy="130.5" r="2.5" fill="#C4C4C4"/>
<circle cx="368.5" cy="130.5" r="2.5" fill="#C4C4C4"/>
<circle cx="240.5" cy="358.5" r="2.5" fill="#C4C4C4"/>
<circle cx="368.5" cy="358.5" r="2.5" fill="#C4C4C4"/>
<circle cx="240.5" cy="73.5" r="2.5" fill="#C4C4C4"/>
<circle cx="368.5" cy="73.5" r="2.5" fill="#C4C4C4"/>
<circle cx="240.5" cy="301.5" r="2.5" fill="#C4C4C4"/>
<circle cx="368.5" cy="301.5" r="2.5" fill="#C4C4C4"/>
<circle cx="240.5" cy="187.5" r="2.5" fill="#C4C4C4"/>
<circle cx="368.5" cy="187.5" r="2.5" fill="#C4C4C4"/>
<circle cx="240.5" cy="415.5" r="2.5" fill="#C4C4C4"/>
<circle cx="368.5" cy="415.5" r="2.5" fill="#C4C4C4"/>
<circle cx="240.5" cy="45.5" r="2.5" fill="#C4C4C4"/>
<circle cx="368.5" cy="45.5" r="2.5" fill="#C4C4C4"/>
<circle cx="240.5" cy="273.5" r="2.5" fill="#C4C4C4"/>
<circle cx="368.5" cy="273.5" r="2.5" fill="#C4C4C4"/>
<circle cx="240.5" cy="159.5" r="2.5" fill="#C4C4C4"/>
<circle cx="368.5" cy="159.5" r="2.5" fill="#C4C4C4"/>
<circle cx="240.5" cy="387.5" r="2.5" fill="#C4C4C4"/>
<circle cx="368.5" cy="387.5" r="2.5" fill="#C4C4C4"/>
<circle cx="240.5" cy="102.5" r="2.5" fill="#C4C4C4"/>
<circle cx="368.5" cy="102.5" r="2.5" fill="#C4C4C4"/>
<circle cx="240.5" cy="330.5" r="2.5" fill="#C4C4C4"/>
<circle cx="368.5" cy="330.5" r="2.5" fill="#C4C4C4"/>
<circle cx="240.5" cy="216.5" r="2.5" fill="#C4C4C4"/>
<circle cx="368.5" cy="216.5" r="2.5" fill="#C4C4C4"/>
<circle cx="240.5" cy="444.5" r="2.5" fill="#C4C4C4"/>
<circle cx="368.5" cy="444.5" r="2.5" fill="#C4C4C4"/>
</svg>
