<?xml version="1.0" encoding="utf-8"?>
<!-- Generator: Adobe Illustrator 24.0.1, SVG Export Plug-In . SVG Version: 6.00 Build 0)  -->
<svg version="1.1" id="Laag_1" xmlns="http://www.w3.org/2000/svg" xmlns:xlink="http://www.w3.org/1999/xlink" x="0px" y="0px"
	 viewBox="0 0 250.6 74.7" style="enable-background:new 0 0 250.6 74.7;" xml:space="preserve">
<style type="text/css">
	.st0{fill:#000026;}
</style>
<title>fictive companies for templates v2</title>
<path class="st0" d="M0,11.8h9.6v21.4h25.2V11.8h9.6v53.8h-9.6V41.9H9.6v23.7H0V11.8z"/>
<path class="st0" d="M85.1,65.6h-8.7v-5.9h-0.2c-1.7,3.7-5.1,6.8-11.2,6.8c-9.8,0-13.3-6.9-13.3-14.4v-23h9.1v18.5
	c0,4,0.3,10.7,6.7,10.7c6,0,8.4-4.4,8.4-9.3V29.1h9.1V65.6z"/>
<path class="st0" d="M91.2,29.1h8.7v5.7h0.2c1.6-3.4,5.1-6.6,11.2-6.6c5.6,0,9.5,2.2,11.4,6.8c2.7-4.6,6.5-6.8,12-6.8
	c9.7,0,13.2,6.9,13.2,15.7v21.8h-9.1V45c0-4.6-1.4-8.5-6.8-8.5c-5.7,0-7.8,4.7-7.8,9.4v19.8H115V43.9c0-4.5-1.8-7.5-6.2-7.5
	c-6,0-8.4,4.4-8.4,9.3v19.9h-9.1V29.1z"/>
<path class="st0" d="M154,8.1h9.1v25.6h0.2c1.9-2.4,5.6-5.6,12.4-5.6c10.4,0,17.6,8.4,17.6,19.2s-6.8,19.2-18,19.2
	c-5.1,0-9.9-2-12.5-6.4h-0.2v5.5H154L154,8.1z M173.6,36.4c-6.7,0-10.7,5.2-10.7,11s4,11,10.7,11c6.7,0,10.7-5.2,10.7-11
	S180.2,36.4,173.6,36.4L173.6,36.4z"/>
<path class="st0" d="M198.3,8.1h9.1v57.5h-9.1V8.1z"/>
<path class="st0" d="M223.1,53.6c2.1,4.6,7.5,6.7,12.2,4.8c3.7-1.3,6.5-4.3,7.5-8l7.8,2.4c-1.9,5.7-6.3,10.2-12,12.1
	c-10.4,3.8-21.3-0.4-25.2-11.2s1.7-21,12.1-24.8c9.6-3.5,18.5,0.9,22.9,12.8l0.9,2.4L223.1,53.6z M238.3,40.8c-1.9-5-6.3-6.9-11.7-5
	c-5.1,1.8-7,6.2-5.9,11.4L238.3,40.8z"/>
</svg>
