<?xml version="1.0" encoding="utf-8"?>
<!-- Generator: Adobe Illustrator 24.0.1, SVG Export Plug-In . SVG Version: 6.00 Build 0)  -->
<svg version="1.1" id="Laag_1" xmlns="http://www.w3.org/2000/svg" xmlns:xlink="http://www.w3.org/1999/xlink" x="0px" y="0px"
	 viewBox="0 0 302.3 74.7" style="enable-background:new 0 0 302.3 74.7;" xml:space="preserve">
<style type="text/css">
	.st0{fill:#000026;}
</style>
<title>fictive companies for templates v2</title>
<polygon class="st0" points="63.9,17.9 61.4,19.3 56.3,22.2 33.3,8.9 10.3,22.2 5.3,19.3 2.8,17.9 33.3,0.2 "/>
<polygon class="st0" points="66,22.5 66,56.8 35.9,74.2 35.9,65.4 58.4,52.4 58.4,26.8 63.5,23.9 "/>
<polygon class="st0" points="30.8,65.4 30.8,74.2 0.7,56.8 0.7,22.5 3.2,23.9 8.2,26.8 8.2,52.4 "/>
<polygon class="st0" points="30.8,39.9 30.8,59.6 13.3,49.5 13.3,29.7 "/>
<polygon class="st0" points="51.3,25.1 33.3,35.5 15.4,25.1 33.3,14.8 "/>
<polygon class="st0" points="53.4,29.7 53.4,49.5 35.9,59.6 35.9,39.9 "/>
<polygon class="st0" points="30.8,39.9 30.8,59.6 13.3,49.5 13.3,29.7 "/>
<polygon class="st0" points="51.3,25.1 33.3,35.5 15.4,25.1 33.3,14.8 "/>
<polygon class="st0" points="53.4,29.7 53.4,49.5 35.9,59.6 35.9,39.9 "/>
<polygon class="st0" points="30.8,39.9 30.8,59.6 13.3,49.5 13.3,29.7 "/>
<polygon class="st0" points="51.3,25.1 33.3,35.5 15.4,25.1 33.3,14.8 "/>
<polygon class="st0" points="53.4,29.7 53.4,49.5 35.9,59.6 35.9,39.9 "/>
<polygon class="st0" points="30.8,39.9 30.8,59.6 13.3,49.5 13.3,29.7 "/>
<polygon class="st0" points="51.3,25.1 33.3,35.5 15.4,25.1 33.3,14.8 "/>
<polygon class="st0" points="53.4,29.7 53.4,49.5 35.9,59.6 35.9,39.9 "/>
<path class="st0" d="M106.1,29.9v-0.6c0-3.3-2.6-5.2-7.1-5.2c-4.2,0-6.7,1.5-6.7,4c0,1.7,1.2,2.8,3.6,3.4l8,1.8
	c4.4,1.1,6.8,2.1,8.7,3.9c2,1.9,3.1,4.7,3,7.5c0,8.1-6.3,13.2-16.5,13.2c-10.6,0-16.7-5.1-16.8-13.9h8.8c0.2,4.5,2.7,6.5,8.1,6.5
	c4.5,0,7.3-1.7,7.3-4.4c0-1.9-1.4-3.3-4.2-4l-7.1-1.8c-4.2-1-6.8-2.1-8.6-3.7c-2.1-2-3.3-4.8-3.1-7.7c0-7.6,5.8-12.1,15.8-12.1
	c6.4,0,10.9,1.9,13.4,5.6c1.3,1.9,1.9,4.1,2.3,7.6H106.1z"/>
<path class="st0" d="M126.2,45.1c0.5,3.9,2.8,6,6.4,6c2,0.2,3.9-0.8,5-2.5h8.5c-1.6,5.5-6.9,9.1-13.7,9.1c-8.8,0-14.6-6-14.6-15
	c0-8.9,6-15,14.6-15c6,0,10.6,3,12.7,8.4c1.1,2.9,1.6,6,1.4,9.1H126.2z M137.9,39.2c-0.4-3.4-2.3-5.2-5.5-5.2c-3.2,0-5.4,1.8-6,5.2
	H137.9z"/>
<path class="st0" d="M158,28.4v2.8c3.1-2.8,4.8-3.6,7.8-3.6c6.2,0,10,4.1,10,10.9v18.5h-8.4V41.4c0-2.9-0.2-4-0.9-5.1
	c-0.8-1.1-2.1-1.7-3.4-1.7c-1.4,0-2.7,0.5-3.6,1.5c-0.9,1.1-1.2,2.2-1.2,4.7v16h-8.4V28.4H158z"/>
<path class="st0" d="M207.4,56.9h-8v-3.1c-1.8,2.6-4.7,4-7.8,3.8c-7.5,0-12.5-6-12.5-15c0-9.1,5.1-15.1,12.7-15.1
	c2.7-0.1,5.4,0.9,7.3,3v-13h8.4L207.4,56.9z M187.3,42.6c0,5,2.4,8.3,6,8.3c3.6,0,6-3.3,6-8.1c0-5.1-2.4-8.4-6-8.4
	S187.3,37.6,187.3,42.6L187.3,42.6z"/>
<path class="st0" d="M212.2,17.5h8.4v12.9c2.2-1.8,5-2.8,7.8-2.8c7.3,0,12.1,5.9,12.1,14.6c0,9-5.2,15.4-12.6,15.4
	c-3.5,0-5.5-1.1-7.8-4v3.2h-8L212.2,17.5z M220.2,42.6c0,5,2.4,8.3,6.1,8.3s6-3.2,6-8.1c0-5.1-2.3-8.3-6-8.3
	C222.6,34.4,220.2,37.7,220.2,42.6z"/>
<path class="st0" d="M272.7,42.8c0,8.6-6.4,14.8-15.2,14.8c-8.8,0-15.1-6.2-15.1-15c0-8.8,6.3-15,15.1-15
	C266.6,27.6,272.7,33.7,272.7,42.8z M250.9,42.6c0,5.4,2.4,8.4,6.7,8.4c4.2,0,6.7-3,6.7-8.2c0-5.5-2.4-8.5-6.7-8.5
	C253.3,34.3,250.9,37.3,250.9,42.6z"/>
<path class="st0" d="M301.3,56.9h-9.7l-5.4-8.1l-5.2,8.1h-9.6l10.2-14.9l-9.3-13.6h9.3l4.7,7.2l4.5-7.2h9.3l-9.3,13.6L301.3,56.9z"
	/>
</svg>
