<?xml version="1.0" encoding="utf-8"?>
<!-- Generator: Adobe Illustrator 24.0.1, SVG Export Plug-In . SVG Version: 6.00 Build 0)  -->
<svg version="1.1" id="Laag_1" xmlns="http://www.w3.org/2000/svg" xmlns:xlink="http://www.w3.org/1999/xlink" x="0px" y="0px"
	 viewBox="0 0 263.5 59.2" style="enable-background:new 0 0 263.5 59.2;" xml:space="preserve">
<style type="text/css">
	.st0{fill:#000026;}
</style>
<title>Middel 1</title>
<g id="Laag_2_1_">
	<g id="Laag_1-2">
		<polygon class="st0" points="37,0 59.2,0 59.2,22.2 		"/>
		<polygon class="st0" points="22.2,59.2 0,59.2 0,37 		"/>
		<polygon class="st0" points="0,14.8 0,0 14.8,0 59.2,44.4 59.2,59.2 44.4,59.2 		"/>
		<rect x="114.5" y="21.9" class="st0" width="5.5" height="26.1"/>
		<path class="st0" d="M117.2,10.6c-1.8,0-3.3,1.5-3.3,3.3c0,0,0,0,0,0.1c0,0.9,0.3,1.8,1,2.4c1.3,1.3,3.4,1.2,4.7,0
			c1.3-1.3,1.3-3.4,0-4.7c0,0,0,0,0,0C119,10.9,118.1,10.5,117.2,10.6z"/>
		<path class="st0" d="M132.9,14.4l-5.5,1.8v5.8h-4.2v4.9h4.2v13.8c0,5.2,2.5,8,7.2,8c1.4,0.1,2.8-0.2,4-0.9l0.4-0.2v-5.3l-1.2,0.9
			c-0.6,0.5-1.3,0.7-2.1,0.7c-0.8,0.1-1.6-0.2-2.2-0.8c-0.5-0.9-0.8-2-0.7-3V26.8h6.2v-4.9h-6.2L132.9,14.4z"/>
		<path class="st0" d="M156.9,22.1l-0.5-0.2c-0.8-0.3-1.7-0.4-2.6-0.4c-1.6,0-3.1,0.6-4.4,1.6c-0.5,0.5-1,1-1.4,1.5v-2.7h-5.5V48
			h5.5V34.7c-0.1-2.1,0.4-4.2,1.5-6c0.8-1.3,2.1-2,3.6-2.1c0.9-0.1,1.8,0.2,2.5,0.6l1.2,0.9L156.9,22.1z"/>
		<path class="st0" d="M170.3,21.3c-3.6-0.2-7.1,1.2-9.7,3.7c-2.4,2.5-3.6,5.9-3.6,10.2c-0.2,3.5,1.1,7,3.5,9.6
			c2.4,2.5,5.8,3.8,9.2,3.7c3.6,0.2,7-1.2,9.5-3.8c2.4-2.7,3.7-6.3,3.5-9.9c0-4.2-1.1-7.5-3.3-9.9C177.3,22.6,174.2,21.3,170.3,21.3
			z M175.3,41.5c-1.3,1.5-3.3,2.3-5.3,2.2c-2,0.1-4-0.7-5.4-2.3c-1.4-1.8-2.2-4.1-2-6.4c-0.1-2.4,0.6-4.7,2-6.6
			c1.4-1.6,3.4-2.4,5.4-2.3c2-0.1,4,0.7,5.3,2.2c1.2,1.5,1.9,3.7,1.9,6.6C177.2,37.8,176.6,40,175.3,41.5L175.3,41.5z"/>
		<path class="st0" d="M201.5,35.6c-0.7-0.6-1.5-1.2-2.4-1.6c-1-0.5-2-0.9-3-1.3c-0.8-0.3-1.5-0.6-2.2-0.9c-0.5-0.2-1-0.5-1.5-0.8
			c-0.3-0.2-0.6-0.5-0.8-0.9c-0.2-0.4-0.3-0.8-0.3-1.2c0-0.4,0.1-0.7,0.3-1c0.2-0.3,0.4-0.6,0.8-0.8c0.4-0.3,0.8-0.5,1.3-0.6
			c0.6-0.2,1.2-0.2,1.8-0.2c2.1,0,4.1,0.5,5.8,1.6l1.2,0.8v-5.9l-0.5-0.2c-1.9-0.8-3.9-1.2-6-1.2c-1.2,0-2.5,0.2-3.7,0.5
			c-1.2,0.3-2.3,0.8-3.2,1.5c-1,0.6-1.7,1.5-2.3,2.5c-0.6,1-0.9,2.2-0.9,3.4c0,0.9,0.1,1.9,0.5,2.8c0.3,0.8,0.8,1.5,1.4,2.1
			c0.7,0.6,1.4,1.2,2.2,1.6c1,0.5,1.9,1,3,1.3c0.8,0.3,1.5,0.6,2.2,0.9c0.6,0.2,1.1,0.5,1.6,0.9c0.4,0.3,0.7,0.6,1,1
			c0.2,0.4,0.3,0.8,0.3,1.2c0,1.2-0.5,2.7-4.4,2.7c-2.4,0-4.7-0.8-6.6-2.2l-1.2-0.9v6.2l0.4,0.2c2.1,1.1,4.5,1.6,6.9,1.6
			c1.3,0,2.6-0.1,3.9-0.5c1.2-0.3,2.3-0.8,3.3-1.4c1-0.6,1.8-1.5,2.4-2.5c0.6-1.1,0.9-2.3,0.9-3.6c0-1-0.2-2-0.6-2.9
			C202.7,37,202.1,36.2,201.5,35.6z"/>
		<path class="st0" d="M219.5,21.3c-3.6-0.2-7.1,1.2-9.7,3.7c-2.4,2.5-3.6,5.9-3.6,10.2c-0.2,3.5,1.1,7,3.5,9.6
			c2.4,2.5,5.8,3.8,9.2,3.7c3.6,0.2,7-1.2,9.5-3.8c2.4-2.7,3.7-6.3,3.5-9.9c0-4.2-1.1-7.5-3.3-9.9C226.4,22.6,223.4,21.3,219.5,21.3
			z M224.5,41.5c-1.3,1.5-3.3,2.3-5.3,2.2c-2,0.1-4-0.7-5.4-2.3c-1.4-1.8-2.2-4.1-2-6.4c-0.1-2.4,0.6-4.7,2-6.6
			c1.4-1.6,3.4-2.4,5.4-2.3c2-0.1,4,0.7,5.3,2.2c1.2,1.5,1.9,3.7,1.9,6.6C226.4,37.8,225.7,40,224.5,41.5z"/>
		<path class="st0" d="M263.5,26.8v-4.9h-6.2v-7.5l-5.5,1.8v5.8h-9.4v-3c0-4,1.9-4.4,3.4-4.4c0.8,0,1.6,0.2,2.2,0.5l1.1,0.6v-5.4
			l-0.5-0.2c-3.2-1.1-6.8-0.3-9.2,2c-1.7,1.8-2.6,4.2-2.5,6.6v3.2h-4.2v4.9h4.2V48h5.4V26.8h9.4v13.8c0,5.2,2.5,8,7.2,8
			c1.4,0.1,2.8-0.2,4-0.9l0.4-0.2v-5.3l-1.2,0.9c-0.6,0.5-1.3,0.7-2.1,0.7c-0.8,0.1-1.6-0.2-2.2-0.8c-0.5-0.9-0.8-2-0.7-3V26.8
			H263.5z"/>
		<path class="st0" d="M103.3,9.5v26.9c0,1.3,0,2.4,0.1,3.3c-0.1-0.2-19.3-30.2-19.3-30.2h-6.5V48h5.5V20.4c0-1.1,0-2,0-2.8
			c0.1,0.1,19.6,30.3,19.6,30.3h6.2V9.5H103.3z"/>
	</g>
</g>
</svg>
