<?xml version="1.0" encoding="utf-8"?>
<!-- Generator: Adobe Illustrator 24.0.1, SVG Export Plug-In . SVG Version: 6.00 Build 0)  -->
<svg version="1.1" id="Laag_1" xmlns="http://www.w3.org/2000/svg" xmlns:xlink="http://www.w3.org/1999/xlink" x="0px" y="0px"
	 viewBox="0 0 505.8 74.7" style="enable-background:new 0 0 505.8 74.7;" xml:space="preserve">
<style type="text/css">
	.st0{fill:#000026;}
</style>
<title>fictive companies for templates v2</title>
<path class="st0" d="M70.8-0.3C65-0.4,59.3,1,54.1,3.6C35.6-5.6,13.1,2,3.9,20.6s-1.6,41.1,17,50.3c5.2,2.6,10.9,3.9,16.6,3.9
	c5.8,0,11.5-1.3,16.6-3.9c18.6,9.2,41.1,1.6,50.3-17s1.6-41.1-17-50.3C82.2,1,76.5-0.3,70.8-0.3z M54.1,13.4
	c13.1,9.2,16.3,27.2,7.1,40.4c-1.9,2.8-4.3,5.2-7.1,7.1C41,51.7,37.8,33.7,47,20.6C49,17.8,51.4,15.4,54.1,13.4z M37.5,66.2
	c-16,0-29-13-29-29c0-16,13-29,29-29c0,0,0,0,0,0c2.7,0,5.5,0.4,8.1,1.2C30.3,23.2,29,46.9,42.9,62.3c0.9,1,1.8,1.9,2.7,2.7
	C43,65.8,40.3,66.2,37.5,66.2z M70.8,66.2c-2.7,0-5.5-0.4-8.1-1.2C78,51.1,79.2,27.5,65.4,12.1c-0.9-1-1.8-1.9-2.7-2.7
	c2.6-0.8,5.4-1.2,8.1-1.2c16,0,29,13,29,29C99.7,53.2,86.8,66.2,70.8,66.2z"/>
<path class="st0" d="M141.5,60.9c-3,0-6-0.8-8.5-2.3c-2.6-1.6-4.6-3.9-6-6.7c-1.5-3.1-2.3-6.5-2.2-10c0-3.3,0.7-6.6,2.2-9.6
	c1.4-2.8,3.5-5.2,6.1-7c2.6-1.8,5.7-2.7,8.9-2.7c2.2,0,4.4,0.5,6.5,1.4c1.9,0.9,3.5,2.2,4.7,4V2.5h9.8v57.2h-9.4l-0.1-4.6
	c-1.2,1.9-2.9,3.3-4.9,4.3C146.4,60.4,143.9,60.9,141.5,60.9z M144.2,52.1c2.6,0.1,5.1-1,6.8-2.9c1.8-2.1,2.8-4.7,2.7-7.5
	c0.1-2.7-0.8-5.4-2.7-7.4c-3.7-3.8-9.8-3.9-13.6-0.1c0,0-0.1,0.1-0.1,0.1c-1.8,2-2.8,4.7-2.7,7.4c-0.1,2.7,0.9,5.4,2.7,7.5
	C139.1,51.1,141.6,52.2,144.2,52.1z"/>
<path class="st0" d="M184.5,60.9c-3,0-6-0.8-8.5-2.3c-2.6-1.6-4.6-3.9-6-6.7c-1.5-3.1-2.3-6.5-2.2-10c0-3.3,0.7-6.6,2.2-9.6
	c1.4-2.8,3.5-5.2,6.1-7c2.6-1.8,5.7-2.7,8.9-2.7c2.3,0,4.6,0.5,6.7,1.5c1.9,1,3.6,2.4,4.8,4.3l0.1-4.7h9.4v36h-9.4l-0.1-4.6
	c-1.2,1.9-2.9,3.3-4.9,4.3C189.4,60.4,187,60.9,184.5,60.9z M187.2,52.1c2.6,0.1,5.1-1,6.8-2.9c1.8-2.1,2.8-4.7,2.7-7.5
	c0.1-2.7-0.8-5.4-2.7-7.4c-3.7-3.8-9.8-3.9-13.6-0.1c0,0-0.1,0.1-0.1,0.1c-1.8,2-2.8,4.7-2.7,7.4c-0.1,2.7,0.9,5.4,2.7,7.5
	C182.1,51.1,184.6,52.2,187.2,52.1z"/>
<path class="st0" d="M216.2,31.9h-7v-8.1h7v-9.7h9.8v9.7h8.5v8.1h-8.5v27.8h-9.8V31.9z"/>
<path class="st0" d="M251.9,60.9c-3,0-6-0.8-8.5-2.3c-2.6-1.6-4.6-3.9-6-6.7c-1.5-3.1-2.3-6.5-2.2-10c0-3.3,0.7-6.6,2.2-9.6
	c1.4-2.8,3.5-5.2,6.1-7c2.6-1.8,5.7-2.7,8.9-2.7c2.3,0,4.6,0.5,6.7,1.5c1.9,1,3.6,2.4,4.8,4.3l0.1-4.7h9.4v36H264l-0.1-4.6
	c-1.2,1.9-2.9,3.3-4.9,4.3C256.7,60.4,254.3,60.9,251.9,60.9z M254.6,52.1c2.6,0.1,5.1-1,6.8-2.9c1.8-2.1,2.8-4.7,2.7-7.5
	c0.1-2.7-0.8-5.4-2.7-7.4c-3.7-3.8-9.8-3.9-13.6-0.1c0,0-0.1,0.1-0.1,0.1c-1.8,2-2.8,4.7-2.7,7.4c-0.1,2.7,0.9,5.4,2.7,7.5
	C249.5,51.1,252,52.2,254.6,52.1L254.6,52.1z"/>
<path class="st0" d="M280.3,23.8h9.5l0.1,4.5c1-1.8,2.6-3.2,4.4-4.2c2-1,4.3-1.5,6.5-1.4c5.2,0,8.9,2.1,11,6.4c1-2,2.7-3.6,4.6-4.7
	c2.1-1.2,4.5-1.8,6.9-1.8c4.3,0,7.6,1.3,9.8,3.9c2.3,2.6,3.4,6.4,3.4,11.4v21.8h-9.8v-20c0-2.9-0.5-5-1.6-6.4c-1.2-1.4-3-2.2-4.8-2
	c-2-0.1-3.9,0.8-5.1,2.4c-1.3,1.9-2,4.3-1.9,6.6v19.4h-9.8v-20c0-2.9-0.5-5-1.5-6.4c-1.2-1.4-3-2.2-4.8-2c-2-0.1-4,0.8-5.2,2.4
	c-1.3,1.9-2,4.2-1.9,6.6v19.4h-9.8V23.8z"/>
<path class="st0" d="M357.8,60.9c-3,0-6-0.8-8.5-2.3c-2.6-1.6-4.6-3.9-6-6.7c-1.5-3.1-2.3-6.5-2.2-10c0-3.3,0.7-6.6,2.2-9.6
	c1.4-2.8,3.5-5.2,6.1-7c2.6-1.8,5.7-2.7,8.9-2.7c2.3,0,4.6,0.5,6.7,1.5c1.9,1,3.6,2.4,4.8,4.3l0.1-4.7h9.4v36h-9.4l-0.1-4.6
	c-1.2,1.9-2.9,3.3-4.9,4.3C362.7,60.4,360.3,60.9,357.8,60.9z M360.5,52.1c2.6,0.1,5.1-1,6.8-2.9c1.8-2.1,2.8-4.7,2.7-7.5
	c0.1-2.7-0.8-5.4-2.7-7.4c-3.7-3.8-9.8-3.9-13.6-0.1c0,0-0.1,0.1-0.1,0.1c-1.8,2-2.8,4.7-2.7,7.4c-0.1,2.7,0.9,5.4,2.7,7.5
	C355.4,51.1,357.9,52.2,360.5,52.1L360.5,52.1z"/>
<path class="st0" d="M397.3,60.9c-2.6,0-5.2-0.3-7.8-1c-2-0.4-4-1.3-5.7-2.5l1.2-8c3.5,2.3,7.6,3.5,11.8,3.6c4,0,6-1,6-3
	c0-1-0.4-1.9-1.3-2.5c-1.7-0.9-3.5-1.6-5.3-2c-4.2-1.2-7.3-2.7-9.1-4.5c-1.9-2-2.9-4.6-2.7-7.3c-0.1-3.2,1.3-6.2,3.9-8.1
	c2.6-2,6.1-3,10.7-3c2.2,0,4.5,0.3,6.6,0.8c1.9,0.4,3.7,1.1,5.4,2l-1.1,7.8c-1.6-0.9-3.3-1.6-5.1-2c-1.8-0.5-3.6-0.7-5.5-0.7
	c-3.4,0-5.2,0.9-5.2,2.8c0,1,0.4,1.9,1.2,2.4c1.5,0.9,3.2,1.5,4.9,1.9c4.5,1.3,7.7,2.9,9.6,4.7c1.9,2,2.9,4.7,2.8,7.4
	c0.1,3.3-1.4,6.3-4.1,8.2C406,59.9,402.2,60.9,397.3,60.9z"/>
<path class="st0" d="M420.9,31.9h-7v-8.1h7v-9.7h9.8v9.7h8.5v8.1h-8.5v27.8h-9.8L420.9,31.9z"/>
<path class="st0" d="M460.8,60.9c-3.8,0.1-7.5-0.7-11-2.3c-3-1.4-5.6-3.7-7.3-6.6c-1.8-3.1-2.7-6.6-2.6-10.2
	c-0.1-3.4,0.7-6.8,2.3-9.8c1.5-2.8,3.7-5.2,6.4-6.8c2.9-1.7,6.3-2.6,9.7-2.5c3.1-0.1,6.2,0.7,8.9,2.2c2.6,1.4,4.6,3.6,6,6.2
	c1.5,3,2.2,6.2,2.2,9.5c0,1.4-0.1,2.8-0.4,4.2h-25.4c1.2,5.4,5.3,8.1,12.2,8.1c2.1,0,4.2-0.2,6.3-0.7c1.9-0.4,3.8-1.1,5.5-1.9l1,7.7
	c-2,1-4,1.8-6.2,2.2C465.9,60.6,463.3,60.9,460.8,60.9z M465.9,37.9c-0.1-2.2-0.9-4.2-2.4-5.8c-1.5-1.4-3.5-2.1-5.5-2
	c-2.1-0.1-4.1,0.6-5.6,2c-1.6,1.5-2.6,3.6-2.8,5.8H465.9z"/>
<path class="st0" d="M480.7,23.8h9.5l0.1,5.9c0.9-2,2.2-3.6,4-4.9c1.7-1.1,3.8-1.7,5.8-1.7c1.4,0,2.8,0.2,4.2,0.8l-0.8,9.3
	c-1.4-0.6-2.9-0.8-4.4-0.8c-2.4-0.1-4.8,1-6.3,2.9c-1.5,1.9-2.2,4.6-2.2,8.1v16.4h-9.8L480.7,23.8z"/>
</svg>
