<?xml version="1.0" encoding="utf-8"?>
<!-- Generator: Adobe Illustrator 24.0.1, SVG Export Plug-In . SVG Version: 6.00 Build 0)  -->
<svg version="1.1" id="Laag_1" xmlns="http://www.w3.org/2000/svg" xmlns:xlink="http://www.w3.org/1999/xlink" x="0px" y="0px"
	 viewBox="0 0 353.8 74.7" style="enable-background:new 0 0 353.8 74.7;" xml:space="preserve">
<style type="text/css">
	.st0{fill:#000026;}
</style>
<title>fictive companies for templates v2</title>
<path class="st0" d="M51.2,20c4.9,0,8.9,1.6,11.9,4.8c3,3.2,4.4,7.5,4.4,12.9v26.6H56.4V38.6c0.1-2.2-0.5-4.3-1.9-6
	c-1.4-1.5-3.3-2.3-5.4-2.2c-2.2-0.1-4.4,0.8-5.9,2.5c-1.4,1.7-2.1,4.1-2.1,7.2v24.2H30V38.6c0.1-2.2-0.5-4.3-1.9-6
	c-1.4-1.5-3.3-2.3-5.3-2.2c-2.2-0.1-4.4,0.8-5.9,2.5c-1.5,1.7-2.2,4.1-2.2,7.2v24.2H3.5V21.2h11.1v4.6c2.6-3.9,6.6-5.8,12-5.8
	c5.3,0,9.2,2.1,11.7,6.2C41.3,22.1,45.5,20,51.2,20z"/>
<path class="st0" d="M109.4,59c-9,8.8-23.4,8.8-32.4,0c-4.3-4.2-6.7-10.1-6.6-16.2C70.3,30.3,80.3,20.1,92.7,20c0.2,0,0.3,0,0.5,0
	c12.5-0.1,22.7,9.9,22.8,22.3c0,0.1,0,0.3,0,0.4C116.2,48.9,113.8,54.7,109.4,59z M84.9,51.3c2.2,2.2,5.2,3.4,8.3,3.4
	c3.1,0.1,6.2-1.1,8.4-3.4c2.2-2.3,3.5-5.4,3.4-8.5c0.1-3.2-1.1-6.3-3.4-8.5c-2.2-2.2-5.2-3.4-8.4-3.4c-3.1-0.1-6.1,1.1-8.3,3.4
	c-2.2,2.3-3.4,5.4-3.3,8.5C81.5,46,82.7,49,84.9,51.3z"/>
<path class="st0" d="M167.3,20c4.9,0,8.9,1.6,11.9,4.8c3,3.2,4.4,7.5,4.4,12.9v26.6h-11.1V38.6c0.1-2.2-0.5-4.3-1.9-6
	c-1.4-1.5-3.3-2.3-5.4-2.2c-2.2-0.1-4.4,0.8-5.9,2.5c-1.4,1.7-2.1,4.1-2.1,7.2v24.2h-11.1V38.6c0.1-2.2-0.5-4.3-1.9-6
	c-1.4-1.5-3.3-2.3-5.3-2.2c-2.2-0.1-4.4,0.8-5.9,2.5c-1.5,1.7-2.2,4.1-2.2,7.2v24.2h-11.1V21.2h11.1v4.6c2.6-3.9,6.6-5.8,12-5.8
	c5.3,0,9.2,2.1,11.7,6.2C157.3,22.1,161.6,20,167.3,20z"/>
<path class="st0" d="M198.2,47.4c1.5,5.4,5.5,8.1,12.2,8.1c4.3,0,7.5-1.4,9.7-4.3l9,5.2c-4.3,6.2-10.5,9.2-18.8,9.2
	c-7.1,0-12.9-2.2-17.2-6.5c-4.3-4.3-6.7-10.2-6.5-16.3c-0.2-6.1,2.1-11.9,6.4-16.3c4.3-4.3,9.7-6.5,16.4-6.5
	c5.9-0.2,11.6,2.2,15.7,6.5c4.1,4.4,6.3,10.2,6.2,16.2c0,1.5-0.2,3.1-0.4,4.6L198.2,47.4z M198,38.7h22c-0.4-2.6-1.8-4.9-3.9-6.5
	c-2-1.4-4.3-2.2-6.8-2.2c-2.7-0.1-5.3,0.7-7.4,2.3C199.9,33.9,198.5,36.2,198,38.7z"/>
<path class="st0" d="M258.5,20c4.4-0.1,8.6,1.6,11.7,4.7c3.1,3.2,4.6,7.5,4.6,13.1v26.5h-11.1V39.2c0-2.9-0.8-5.1-2.3-6.6
	c-1.7-1.6-3.9-2.4-6.2-2.3c-2.6-0.1-5.1,0.9-6.9,2.7c-1.7,1.8-2.6,4.5-2.6,8v23.3h-11.1V21.2h11.1v4.8C248.4,22,252.7,20,258.5,20z"
	/>
<path class="st0" d="M304.7,31.9h-9.7v17.9c-0.1,1.2,0.3,2.4,1.1,3.3c0.9,0.8,2.1,1.2,3.3,1.2c1.8,0.1,3.6,0.1,5.4,0v10.1
	c-7.7,0.9-13,0.1-16.2-2.2c-3.1-2.3-4.7-6.4-4.7-12.3V31.9h-7.5V21.2h7.5v-8.7l11.1-3.4v12.1h9.7L304.7,31.9z"/>
<path class="st0" d="M343.6,59c-8.9,8.9-23.3,9-32.2,0.1c-4.4-4.3-6.8-10.2-6.7-16.3c0-12.6,10.1-22.8,22.7-22.9
	s22.8,10.1,22.9,22.7c0,0.1,0,0.1,0,0.2C350.4,48.9,348,54.7,343.6,59z M319.1,51.3c2.2,2.2,5.2,3.4,8.3,3.4
	c3.1,0.1,6.2-1.1,8.4-3.4c2.2-2.3,3.5-5.4,3.4-8.5c0.1-3.2-1.1-6.3-3.4-8.5c-2.2-2.2-5.2-3.4-8.4-3.4c-3.1-0.1-6.1,1.1-8.3,3.4
	c-2.2,2.3-3.4,5.4-3.3,8.5C315.7,46,316.9,49,319.1,51.3z"/>
</svg>
